<svg xmlns="http://www.w3.org/2000/svg" viewBox="0 0 437.863 623.214"><defs><style>@font-face{font-family:&quot;Virgil&quot;;src:url(&quot;https://excalidraw.com/FG_Virgil.woff2&quot;)}@font-face{font-family:&quot;Cascadia&quot;;src:url(&quot;https://excalidraw.com/Cascadia.woff2&quot;)}</style></defs><path fill="#fff" d="M0 0h437.863v623.214H0z"/><g stroke-opacity=".5" fill-opacity=".5" fill="none"><path d="M65.43 25.237s0 0 0 0m0 0s0 0 0 0m-5.319 13.201c4.624-4.995 10.215-11.629 16.454-22.209m-16.53 22.454c5.031-5.462 10.604-11.916 17.65-21.08M57.326 47.437C68.491 37.59 78.765 24.949 86.9 12.982M57.05 46.918c7.904-9.304 16.883-20.389 31.584-35.997M59.23 52.151c5.757-10.407 13.326-16.688 32.91-41.125M56.876 52.129c9.976-12.531 20.606-23.818 35.837-40.435M57.22 57.97c12.377-12.888 23.02-23.927 39.869-45.74M58.556 57.75c8.761-10.127 17.356-19.813 39.114-46.211M57.208 63.795C71.967 44.7 87.28 29.66 103.275 12.227m-44.302 51.55c16.787-19.643 35.303-41.502 43.745-51.784M60.645 67.29c11.365-9.804 21.934-22.452 47.81-53.957m-49.42 56.05c17.1-18.615 32.345-38.042 47.157-55.608M61.335 72.272c18.142-20.886 38.89-43.173 48.157-57.807M60.645 74.64c11.606-15.706 25.553-29.321 50.93-58.59m-47.2 59.126c15.51-16.108 30.577-33.782 50.255-58.815m-51.833 59.97c19.83-21.356 38.746-42.678 53.143-60.343M66.432 78.265c13.008-10.938 21.188-23.725 52.6-59.518M66.01 79.5c12.992-16.048 26.797-30.972 52.63-60.223M69.904 83.779c18.49-26.561 40.35-48.048 52.405-64.266M69.641 82.955c11.142-14.027 22.455-27.218 53.345-63.311m-51.852 66.98C91.427 60.338 110.882 37.1 124.173 24.94M72.262 84.289c15.41-17.388 30.086-34.118 52.81-61.862M74.036 86.335c13.325-13.393 29.007-30.662 54.496-61M74.44 87.195c18.229-19.442 36.711-41.126 53.57-60.648M75.635 90.25c18.543-18.755 31.644-32.4 54.863-60.247M76.425 90.977c12.102-13.624 26.068-27.877 53.677-60.146M83.548 92.419c17.04-19.898 34.956-39.803 50.356-57.989m-51.1 56.379c12.831-14.548 27.161-32.243 49.713-57.273m-47.45 57.579c13.128-14.405 29.645-26.802 51.81-55.398m-51.152 55.87c12.363-13.389 24.966-27.868 48.289-54.46M91.867 91.445c13.93-14.535 28.254-33.395 43.53-49.43M90.764 93.882c12.11-13.564 23.89-26.488 45.893-53.827M96.348 95.09c11.847-17.042 28.998-34.111 42.546-48.854m-43.46 47.787c12.222-12.952 23.31-27.289 43.138-48.215m-36.117 47.888c9.225-9.406 16.043-20.323 37.255-41.012m-38.562 42.16c10.918-14.579 22.316-27.667 36.415-42.945m-34.89 45.972c7.7-9.263 15.343-18.221 34.089-42.576m-32.386 41.71c11.08-12.88 21.403-26.614 33.556-39.57m-24.564 35.33c5.54-6.612 15.894-16.834 22.389-30.446m-24.614 31.612c7.85-8.203 16.1-17.098 25.708-29.781" stroke="#228be6" stroke-width=".5"/><path d="M96.656 9.912c7.546-.41 17.853 3.309 24.36 7.992 6.507 4.683 12.07 12.49 14.68 20.107 2.612 7.617 3.026 17.694.986 25.597-2.039 7.903-7.279 16.692-13.22 21.82-5.942 5.13-14.7 8.04-22.43 8.955-7.73.914-16.932.274-23.95-3.469-7.02-3.742-14.519-11.641-18.162-18.986-3.644-7.344-4.82-17.26-3.7-25.08 1.118-7.821 5.1-15.898 10.413-21.844 5.313-5.946 14.742-11.454 21.466-13.832 6.724-2.38 14.22-1.204 18.878-.44 4.658.763 9.098 4.08 9.071 5.02m2.718-2.17c6.88 3.276 12.148 12.207 15.392 19.7 3.244 7.494 5.021 17.19 4.07 25.259-.95 8.068-4.428 17.448-9.772 23.15-5.344 5.7-14.58 9.495-22.291 11.058-7.711 1.562-16.554 1.073-23.973-1.684-7.42-2.757-15.803-8.6-20.545-14.857-4.743-6.257-8.097-14.554-7.913-22.687.185-8.132 4.283-19.37 9.021-26.107 4.739-6.738 12.032-11.553 19.411-14.318 7.379-2.765 19.142-2.621 24.863-2.273 5.721.349 7.826 3.338 9.465 4.364 1.64 1.025.478 1.31.37 1.789" stroke="#000"/></g><g stroke-opacity=".5" fill-opacity=".5" fill="none"><path d="M54.5 114.5s0 0 0 0m0 0s0 0 0 0m.094 6.344c.148-.822 1.831-3.732 5.406-5.343m-5.519 5.061c1.497-1.456 2.627-3.522 4.994-5.423m-6.4 11.14c5.556-5.464 10.382-9.317 12-11.948m-10.204 12.541c3.122-4.28 5.811-7.577 10.738-12.593M55.36 134.624c3.396-9.143 10.958-12.827 14.408-21m-16.231 19.111c4.95-4.384 7.449-6.341 16.276-18.877m-13.838 26.03c5.721-8.54 9.12-13.247 18.737-25.394m-20.888 23.428c9.978-8.604 18.456-18.108 21.16-23.906m-20.522 30.08c5.472-5.215 10.634-12.287 24.418-30m-24.185 29.889c7.044-7.04 15.348-16.13 27.03-28.718M56.01 151.686c7.464-12.427 17.938-21.598 29.227-37.534m-31.124 36.683c12.196-14.357 24.581-27.808 32.59-35.945M54.63 154.885c13.173-15.426 28.12-30.51 38.407-40.492M56.813 154.61c8.217-10.21 17.888-19.865 35.424-38.906m-29.459 37.974c14.897-15.493 25.637-30.499 35.861-37.72m-35.55 39.024c8.7-11.396 16.718-22.295 34.176-41.171m-28.962 42.445c11.569-12.943 22.289-26.096 35.518-41.383m-35.928 39.085c8.851-9.979 18.658-22.19 34.923-38.543M73.838 155.14c13.515-16.444 23.656-30.424 34.748-41.697M73.38 153.341c7.806-8.033 14.904-17.75 33.595-38.777m-30.48 39.111c14.607-11.831 25.69-27.821 34.982-39.936m-32.704 41.825c11.896-15.002 24.656-30.916 33.581-41.59m-29.674 41.448c11.029-12.805 23.366-29.403 35.716-42.438m-34.08 41.457c9.554-11.925 18.018-23.707 34.744-39.677m-28.659 40.879c9.96-13.53 17.959-26.547 32.505-42.605m-35.16 41.94c14.11-15.656 26.664-28.57 36.418-39.694m-28.082 39.409c8.836-9.76 16.275-24.884 30.967-38.897m-32.78 38.328c11.567-14.392 23.7-28.04 34.399-39.272m-27.794 38.65c7.787-10.4 16.64-20.742 32.787-40.842M99.02 154.58c9.744-12.592 21.815-23.767 33.96-40.005m-27.507 40.391c14.239-16.263 25.23-28.49 33.05-38.27m-33.486 36.86c6.437-7.646 15.109-15.169 34.177-37.705m-30.79 39.586c10.774-12.48 19.27-21.487 32.282-33.062m-30.978 32.203c7.58-9.266 17.615-19.972 28.979-33.132m-21.769 32.658c4.26-7.425 10.01-14.237 22.98-26.947m-25.08 27.079c9.322-10.021 18.483-19.467 24.665-26.808m-18.293 29.055c5.314-6.565 6.85-11.893 17.04-23.966m-17.327 21.488c4.825-4.87 8.81-10.34 18.346-20.469M125.22 155.81c3.557-6.401 7.051-9.121 13.803-18.2m-13.711 17.379c4.974-4.98 8.593-11.521 12.978-15.8m-8.45 16.526c4.707-5.06 5.173-7.156 8.744-10.554m-7.828 8.883c3.63-2.646 6.805-6.65 7.734-9.15m-2.722 10.358c1.453-1.429 2.265-2.746 3.055-3.765m-2.854 3.6c1.136-1.476 2.81-2.95 3.096-4.04" stroke="#fd7e14" stroke-width=".5"/><path d="M53.276 114.717c29.191-.89 56.48-.904 86.076 1.478m-84.299-1.551c30.04 1.15 59.228.092 82.936.56m1.178-1.294c.824 12.434 1.433 23.133-2.222 36.884m.96-35.81c1.563 13.833 1.733 28.094-.309 36.843m-1.095 1.83c-17.184-2.471-38.688 1.116-83.253.07m85.851-.876c-20.625-.064-39.773.33-83.79-.638m-1.723.821c1.495-12.59-.108-22.17-.333-37.492m1.16 37.819c.535-10.899-.738-19.784.257-37.977" stroke="#000"/></g><g stroke-opacity=".6" fill-opacity=".6" fill="none"><path d="M199.36 302.307s0 0 0 0m0 0s0 0 0 0m1.873 4.274c13.383-16.13 25.91-29.747 38.457-45.425M202.829 305c11.676-13.126 22.275-26.489 36.993-42.856m-33.454 46.23c13.095-18.852 31.583-36.773 57.385-63.855m-58.608 62.587c18.328-20.452 36.497-40.855 56.13-63.873m-52.49 67.941c15.467-21.252 35.167-40.698 57.706-66.604m-58.794 65.638c15.492-15.607 29.64-34.434 57.973-64.885m-56.612 68.49c24.026-26.11 44.076-51.107 60.14-63.613m-58.673 63.11c14.029-14.656 25.868-28.372 55.888-64.25m-53.943 65.238c20.968-20.586 44.371-47.093 59.253-61.4m-58.846 64.055c17.63-19.482 32.659-37.88 58.184-66.49m-55.987 67.904c21.06-25.058 42.608-49.933 57.927-63.407m-56.385 62.96c19.006-21.015 39.09-42.23 57.577-63.649m-54.373 68.277c12.186-15.382 27.916-34.61 56.638-63.762m-57.77 62.676c14.898-17.326 30.05-34.48 57.469-64.048m-53.54 69.298c19.173-23.003 37.542-46.205 54.795-68.535M222.524 324c11.736-13.375 24.424-27.187 56.298-64.548m-52.988 68.706c12.698-13.389 21.165-26.53 56.75-65.73m-56.688 65.939c19.203-23.534 38.424-47.6 56.525-65.532m-54.06 67.325c16.338-20.145 34.058-41.408 57.132-62.539m-57.185 62.894c20.107-23.69 40.786-47.733 54.996-65.166m-53.573 67.687c18.551-17.766 31.714-35.919 58.137-63.103m-56.392 63.806c10.727-14.952 22.505-29.033 55.204-66.166m-54.488 67.123c13.377-14.76 27.43-29.481 56.957-62.98m-56.42 63.66c12.643-12.93 23.682-26.076 57.742-63.248m-52.274 64.6c15.57-17.328 30.676-32.938 53.691-61.922m-55.034 63.247c21.504-24.311 41.641-48.34 55.2-62.924m-51.582 65.816c19.387-24.171 42.26-47.487 56.689-65.135m-57.658 64.58c19.878-19.491 37.732-42.818 56.513-63.748M242.795 343.7c15.719-15.809 30.016-35.449 57.27-65.494m-57.75 66.263c16.744-19.435 32.966-39.928 56.678-65.54m-52.215 69.276c18.524-25.1 40.382-48.215 54.344-64.567m-56.074 64.672c14.4-18.113 30.278-34.427 56.378-65.408m-53.496 68.172c22.81-26.893 41.356-48.09 55.763-65.86m-55.719 64.357c16.72-18.438 32.804-37.636 56.332-63.99m-53.15 68.832c18.89-23.569 40.453-47.423 56.314-64.816m-56.735 62.194c15.412-17.22 30.418-34.758 56.284-62.451m-52.199 67.025c13.304-17.263 26.359-33.144 55.065-66.063m-55.146 65.796c21.284-26.448 44.06-51.136 55.359-64.74M256.87 360.18c11.943-14.61 23.952-30.716 56.645-65.181m-56.878 63.428c19.977-21.946 37.581-44.282 56.332-64.353m-54.067 66.688c24.25-26.085 44.94-50.956 54.687-63.164m-54.864 63.633c18.69-19.745 34.638-41.005 56.077-63.786m-53.145 67.311c19.892-22.985 40.368-47.534 55.727-63.203m-55.599 62.164c15.09-16.519 28.872-32.544 56.467-62.334" stroke="#fd7e14" stroke-width=".5"/><path d="M261.896 242.278c13.96 14.053 30.638 34.23 58.759 61.07m-60.5-62.82c17.106 17.762 33.101 34.882 59.836 62.293m1.468.776c-14.574 12.443-27.11 26.477-60.69 59.146m57.966-59.64c-22.462 21.657-45.96 45.873-58.534 57.76m-.35 1.99c-16.604-19.086-34.55-32.466-61.633-60.689m62 58.521c-15.14-14.773-30.103-29.264-60.92-59.205m-1.8.77c16.753-15.686 28.1-27.21 63.58-59.085m-61.924 60.03c14.391-17.155 30.728-31.233 60.515-62.696" stroke="#000"/></g><g stroke-opacity=".5" fill-opacity=".5" fill="none"><path d="M287.137 545.786s0 0 0 0m0 0s0 0 0 0m.122 6.357c1.975-2.976 4.139-3.916 4.824-6.08m-4.905 6.35c1.101-2.283 3.222-3.63 5.175-6.495m-5.088 12.236c1.6-3.301 4.384-4.695 10.119-11.552M286.64 557.45c3.242-2.125 5.985-5.073 11.43-11.823m-12.02 18.945c6.464-5.387 7.328-11.26 17.605-16.666m-17.561 15.906c3.646-3.924 8.55-6.781 17.17-17.786M286.95 568.45c7.984-4.362 11.988-14.64 22.78-21.38m-22.616 22.34c6.017-4.763 12.242-12.878 20.305-23.901m-21.956 31.974c10.736-8.57 14.618-18.333 28.338-33.006m-26.899 31.593c6.589-6.667 10.684-13.433 26.815-29.271m-25.857 35.01c11.881-13.414 23.028-28.322 30.656-37.683M285.9 581.79c8.072-7.266 15.884-15.573 33.133-35.353M288.65 587.92c4.144-8.318 13.305-17.68 34.431-42.462m-36.639 43.163c14.18-15.673 27.254-30.514 38.101-43.114m-38.487 48.978c15.199-14.043 29.473-31.716 41.885-49.62m-41.364 50.793c14.749-18.532 30.812-34.656 43.185-50.336m-43.727 53.315c20.954-20.5 37.53-40.732 48.932-51.33m-47.537 52.164c15.475-16.451 29.6-33.353 47.631-53.294m-48.586 61.39c23.401-24.965 44.499-50.535 53.67-63.742m-52.4 63.037c17.192-21.238 36.388-42.734 51.968-61.83m-54.489 67.773c24.934-27.348 49.047-51.347 60.544-65.66m-58.515 66.158c15.17-18.627 33.125-38.058 57.162-67.038M290.18 615.03c13.294-15.512 25.689-29.367 58.934-69.828M289.112 614.9c13.194-13.776 25.614-27.645 62.21-69.543m-55.152 69.819c17.39-21.16 35.06-40.398 58.473-70.432m-58.52 70.907c23.32-27.567 46.691-54.971 60.455-70.006m-56.88 68.84c26.214-26.197 49.042-54.424 62.977-69.635m-62.842 71.818c13.525-17.142 27.43-32.319 62.515-70.662m-56.743 67.77c18.49-22.896 41.654-43.51 59.983-69.241m-59.066 71.051c17.822-22.73 37.027-42.724 60.827-69.974m-58.067 69.682c22.267-19.988 39.688-42.11 63.216-71.02m-60.722 71.31c21.584-28.086 45.62-55.056 61.105-69.972m-56.177 71.395c10.94-14.177 23.603-29.268 60.744-71.404m-61.594 70.221c16.31-17.868 34.032-36.771 61.505-69.938m-57.46 70.532c21.59-27.242 43.66-50.097 64.199-71.777m-62.591 71.789c22.914-26.339 47.135-53.38 60.834-71.7m-55.922 71.67c18.044-20.265 33.319-36.966 59.49-68.708m-59.122 68.78c13.557-14.848 26.537-29.514 60.277-70.865m-53.701 71.868c16.873-20.657 31.842-40.567 61.472-72.704m-61.414 70.636c20.502-22.384 40.846-46.104 59.052-70.572m-54.897 70.573c14.338-13.708 26.491-31.669 59.928-70.207m-59.156 71.624c14.93-20.215 31.745-37.661 59.403-70.487m-55.423 70.4c14.01-17.932 27.574-31.913 60.927-68.842m-60.513 67.244c21.751-25.385 43.776-49.89 60.954-69.058m-56.192 70.297c20.3-24.322 38.986-46.34 60.1-71.194M347.55 615.34c14.429-16.156 30.015-33.223 60.983-70.28m-56.238 72.077c21.47-24.1 38.074-42.603 61.423-72.5m-59.198 71.037c22.995-25.877 46.456-54.003 60.205-70.396m-57.349 70.044c22.958-24.357 44.764-48.1 61.056-69.97m-60.7 70.051c22.309-25.467 45.382-49.845 61.619-70.22m-55.746 71.077c16.38-19.375 33.556-37.218 62.85-68.716m-61.822 67.938c15.632-18.732 29.854-36.8 61.001-70.058m-55.43 70.48c12.224-14.853 22.446-27.345 57.53-70.318m-58.17 70.733c17.652-22.657 36.816-44.27 59.099-69.276m-55.216 69.307c17.766-23.262 37.573-39.646 54.85-63.498m-53.507 63.6c17.61-21.259 34.033-41.387 54.787-63.977m-48.728 62.97c17.159-17.98 35.294-37.985 48.694-55.482m-49.503 56.349c10.19-12.501 20.492-25.53 49.154-57.365m-43.343 55.358c9.763-7.955 17.685-20.837 45.284-50.15m-45.609 50.741c17.148-19.48 34.152-40.399 44.728-50.89m-40.242 50.915c14.901-11.914 27.268-27.28 37.783-43.323m-36.31 43.933c9.264-11.443 17.595-20.913 37.07-44.532m-30.863 44.68c10.563-11.692 21.516-25.357 31.633-35.999m-32.12 34.869c5.535-6.443 11.668-14.674 31.111-37.051m-26.075 39.468c7.793-8.778 16.568-18.288 25.842-32.138m-27.53 30.218c12.026-11.204 21.583-22.884 29.447-30.753m-21.313 32.393c2.342-4.508 9.064-11.849 19.758-28.35m-21.429 27.23c7.097-8.7 16.014-18.533 22.103-26.197m-17.194 26.5c3.113-2.94 7.665-8.498 16.919-19.225m-17.62 19.205c5.295-5.788 10.447-12.365 17.388-20.504m-9.406 18.963c.84-5.294 6.374-9.838 8.875-11.481m-10.15 12.68c4.13-5.341 8.75-10.758 10.536-14.226m-6.591 14.364c2.977-3.287 5.29-4.675 7.982-7.837m-7.728 7.975c2.435-2.046 4.067-3.535 7.2-7.777" stroke="#868e96" stroke-width=".5"/><path d="M288.917 547.06c39.482-2.01 81.771-1.828 137.78-.282m-139.818-1.467c38.43.854 76.051-.042 140.605.931m1.67-.322c-1.959 20.993-2.915 41.324-.148 68.95m-1.92-68.65c1.324 19.986 1.624 42.542 1.316 66.099m1.21 2.69c-36.185-1.934-71.96-4.098-141.517-.171m138.851-1.988c-32.532-.908-64.093-1.915-140.174 1.18m-.297-2.394c-.921-22.94 1.755-43.443 2.285-66.607m-1.911 67.79c.72-17.432 1.106-36.755.147-67.951" stroke="#000"/></g><g stroke-opacity=".5" fill-opacity=".5" fill="none"><path d="M110.857 533.766s0 0 0 0m0 0s0 0 0 0m.044 6.158c.867-1.843 1.977-3.255 4.402-5.231m-4.754 5.742c2.141-2.077 3.997-4.398 4.918-6.054m-5.896 11.7c5.341-5.278 8.88-10.26 12.764-11.376M111.5 545.517c3.558-3.852 6.76-7.933 10.149-11.109m-9.917 19.228c5.382-7.326 6.718-12.954 15.757-19.079m-17.29 17.233c5.754-4.324 9.85-10.573 16.995-18.36m-14.42 22.598c6.251-7.986 13-12.994 19.761-20.662m-20.62 22.853c6.418-7.857 14.532-17.173 21.189-24.452m-20.655 30.309c5.924-8.105 10.193-15.324 25.633-28.892m-27.626 29.27c8.354-9.262 15.41-18.95 27.639-29.555m-26.956 34.66c9.66-6.963 17.342-17.338 31.25-35.405m-32.557 36.894c10.575-11.149 18.227-21.395 32.03-38.38m-30.899 42.443c11.83-13.137 22.97-27.594 34.807-40.756m-34.57 41.003c8.767-8.961 17.182-18.128 36.455-41.14m-36.405 47.824c15.738-17.15 29.774-36.984 44.029-48.72m-44.602 49.21c9.96-12.42 21.883-24.922 43.628-48.868m-41.735 54.961c14.659-18.273 31.043-36.51 44.327-52.97m-46.187 52.292c14.02-15.312 28.72-30.8 48.045-53.091m-49.836 58.836c17.764-13.785 30.961-34.187 55.3-59.158m-53.608 59.423c17.497-18.402 35.36-39.347 53.488-60.9m-52.346 69.856c21.369-25.819 44.158-53.933 58.895-67.586m-60.715 65.014c23.16-26.365 46.728-51.695 58.17-66.639m-56.679 72.66c21.106-25.321 44.629-51.884 62.647-73.252m-61.824 71.902c15.271-15.696 28.95-32.36 62.994-70.936m-59.216 69.282c16.158-15.51 34.695-34.999 65.03-71.088m-63.721 72.75c16.76-18.695 30.367-35.9 61.897-70.95m-53.747 69.209c22.14-24.566 41.633-49.156 58.05-71.25m-59.915 72.494c13.23-15.234 25.784-31.093 61.437-70.656m-55.433 72.23c21.27-28.11 47.321-56.917 61.37-72.057m-61.412 71.437c13.625-16.667 26.424-34.587 59.924-70.784m-54.593 71.746c14.49-20.535 29.931-38.772 60.245-74.517m-62.315 72.931c24.81-27.934 48.804-56.502 62.355-72.352m-57.261 70.908c12.77-13.124 27.028-26.74 64.244-68.561m-63.196 69.77c22.203-24.173 44.679-50.174 62.132-69.891m-56.252 69.692c22.811-26.675 45.379-54.392 60.465-71.34m-61.97 71.633c14.676-15.23 27.441-30.676 63.284-70.742m-55.164 69.492c12.663-13.889 27.272-33.738 61.698-69.9m-62.715 71.934c17.223-21.7 34.424-41.863 61.622-70.746m-56.714 69.967c14.074-14.127 25.837-31.04 62.914-71.27m-63.815 71.048c24.29-24.68 45.264-50.867 62.235-71.307m-56.091 70.886c23.717-25.305 45.214-47.956 60.777-68.37m-60.129 68.385c15.942-20.28 35.502-40.905 59.996-70.327m-55.294 70.97c15.524-18.966 34.375-43.225 61.48-69.349m-62.483 68.88c15.825-18.252 31.351-35.703 62.401-70.518m-57.822 68.978c21.55-18.077 38.643-41.636 57.627-60.475m-55.21 62.047c18.018-22.385 36.697-43.39 55.45-63.318m-50.39 65.54c13.957-15.402 26.191-31.681 47.873-61.052m-49.446 60.037c18.768-23.072 38.758-44.833 50.295-58.783m-43.434 59.824c14.406-20.164 32.795-38.983 46.603-54.02m-47.46 52.41c16.706-20.29 35.129-40.127 45.902-53.205m-39.603 55.059c8.312-10.376 15.16-21.452 37.791-49.01m-38.176 46.34c12.24-14.34 25.446-30.596 39.92-45.157m-34.484 47.362c7.148-9.675 15.794-18.395 32.348-43.588m-33.176 42.013c8.305-10.886 17.598-21.056 35.039-39.748m-28.791 41.908c11.474-12.995 19.589-25.856 30.124-37.262m-30.357 35.79c11.03-12.908 23.758-26.394 27.972-33.612m-23.202 34.685c6.697-7.757 9.032-14.671 25.25-28.719m-25.927 27.61c6.14-6.737 11.876-13.901 23.811-27.167m-18.554 28.67c7.702-9.207 14.325-17.237 19.42-25.605m-19.345 23.911c6.912-8.47 13.215-15.762 20.303-21.375m-15.962 19.368c6.099-5.085 10.314-8.798 16.671-14.22m-14.76 15.494c2.905-3.569 4.758-7.125 13.63-14.45m-8.526 13.937c1.942-.51 4.807-3.886 7.682-9.177m-7.217 9.928c2.149-1.904 3.986-4.773 7.706-10.046m-2.89 10.178c.702-1.11 1.512-1.48 2.7-3.541m-2.355 3.206c.604-1.03 1.763-2.054 2.589-2.979" stroke="#868e96" stroke-width=".5"/><path d="M112.008 531.793c41.837 3.205 81.153 1.824 114.248.822m-115.988.626c35.612.584 69.8-.708 115.305-.031m-.71.376c.29 15.892.798 29.175.198 71.368m1.25-70.656c-.345 18.132-.338 35.521-.668 68.506m1.992-.138c-33.594-1.146-61.636 2.563-118.31 2.244m116.183-1.931c-35.678.713-72.983-.306-114.708-.134m1.314 1.559c-2.018-18.698.233-30.873-2.038-70.93m.995 70.648c.948-16.249-.991-29.968-.43-71.24" stroke="#000"/></g><g stroke-opacity=".5" fill-opacity=".5" fill="none"><path d="M283.324 359.674s0 0 0 0m0 0s0 0 0 0m-.682 6.522c2.067-1.856 2.993-3.47 5.892-6.728m-5.485 6.897c1.675-2.216 3.086-3.857 5.221-6.657m-5.274 13.255c3.588-2.959 6.3-7.516 11.805-13.676m-11.213 13.193c3.032-5.235 6.96-8.898 10.299-13.585m-11.74 19.26c7.234-6.323 12.375-15.288 15.11-16.605m-14.785 16.693c6.723-6.853 10.518-13.221 16.768-18.51m-13.722 23.704c5.133-7.363 11.865-14.82 19.847-25.251m-22.084 26.363c6.587-7.81 13.2-14.683 21.82-25.637m-20.727 31.254c7.58-6.74 12.187-17.1 24.46-30.976m-25.12 31.653c6.371-8.425 14.364-17.926 24.955-30.722m-24.757 38.058c7.985-11.34 15.66-23.33 31.79-40.56m-31.992 39.486c10.417-13.516 21.452-27.34 31.847-37.867m-30.841 42.301c9.016-10.79 17.467-17.297 34.142-40.565m-32.652 39.847c12.064-17.61 27.268-31.72 34.046-40.858m-30.529 39.291c14.973-15.013 26.57-26.253 37.137-38.648m-36.602 39.44c7.567-7.803 16.14-16.455 35.82-41.487m-31.634 39.404c13.065-7.915 20.167-22.252 35.798-38.78m-33.826 40.255c9.717-12.705 21.078-25.703 35.253-39.766m-30.52 38.679c14.833-14.167 27.558-31.252 35.182-38.25m-35.258 40.905c9.487-11.385 19.212-22.522 35.86-41.932m-30.534 41.251c8.206-9.892 20.666-21.32 33.158-41.382m-32.414 41.7c12.048-15.012 23.813-27.09 34.379-41.158m-30.165 39.006c12.622-12.525 25.292-29.967 36.908-37.593m-35.726 39.035c8.571-10.463 19.293-21.526 34.266-40.622m-30.202 40.237c11.572-11.884 22.989-27.427 34.427-39.327m-32.895 38.68c7.349-8.48 15.002-16.886 34.197-38.432m-31.885 41.3c13.711-15.729 26.371-27.666 39.02-44.129m-37.226 42.19c11.18-13.202 21.862-24.172 35.565-40.704m-28.069 41.27c10.938-15.71 21.573-30.847 32.808-40.567m-33.98 40.176c7.489-9.594 15.298-18.442 34.982-40.486m-29.369 39.601c7.878-8.862 14.756-17.71 35.22-38.31m-36.71 38.72c12.214-14.774 25.291-27.895 35.778-40.828m-31.328 40.776c13.151-13.855 24.135-27.2 34.503-38.055m-33.613 38.653c11.977-12.153 22.207-26.24 34.503-39.718m-30.566 39.97c11.532-8.089 16.618-21.404 36.211-41.594m-33.867 41.96c13.521-18.04 26.786-33.617 34.429-41.143m-27.94 39.696c9.86-10.85 17.921-22.85 34.715-37.744m-35.977 39.061c8.247-11.801 17.845-22.417 34.04-40.027m-28.698 39.477c12.854-15.447 27.766-30.423 33.697-40.428m-34.12 41.224c9.939-12.281 18.893-22.406 34.542-41.297M361.365 398c10.182-10.413 21.855-22.025 33.65-38.589m-34.487 39.836c6.229-8.193 12.895-16.931 34.362-38.812m-31.245 39.214c8.441-6.72 14.603-18.44 35.724-41.516m-34.97 42.062c8.01-8.604 15.784-17.093 35.985-39.683m-28.894 40.119c7.653-11.284 15.215-22.864 33.163-41.296m-35.445 40.65c10.528-12.363 22.567-25.176 36.398-39.726m-28.957 41.284c8.731-14.339 18.136-25.608 33.307-42.816m-33.619 42.267c10.443-14.23 22.484-28.742 34.091-40.46m-29.983 41.08c12.564-15.549 22.725-24.99 34.149-41.308M380.168 400.7c11.018-12.01 20.947-22.277 36.612-41.656m-30.851 39.808c8.088-7.963 16.152-13.036 36.495-37.029m-36.039 38.355c12.5-15.536 26.115-28.857 33.73-41.02m-29.923 40.373c10.273-10.259 17.2-15.917 35.809-40.58m-34.547 41.962c8.021-9.881 16.626-18.801 34.276-40.504m-28.55 41.169c5.548-11.936 14.681-19.777 27.085-35.815m-26.683 34.787c5.933-9.198 13.323-17.572 28.02-34.22m-23.596 33.726c7.638-7.91 14.422-16.245 24.504-26.744m-24.317 26.4c5.103-6.13 9.37-11.971 22.323-26.345m-16.76 25.195c1.86-1.91 7.575-7.763 19.093-20.137m-19.96 21.314c6.688-6.866 14.686-15.714 18.797-20.719m-11.87 19.682c1.326-3.582 6.067-5.905 12.592-12.583m-13.479 13.396c3.658-4.616 8.183-10.562 12.18-14.908m-7.918 15.038c4.384-3.384 7.53-7 9.637-8.261m-8.723 8.088c2.207-2.676 5.175-6.365 7.154-8.691" stroke="#868e96" stroke-width=".5"/><path d="M283.22 358.87c51.288 1.151 105.711 1.569 142.455.54m-142.59-.53c44.339.721 88.275 1.415 140.65.1m-1.06-.09c2.316 13.948 2.726 30.35 1.566 40.637m1.067-40.715c-1.162 11.7-.366 24.805-.05 38.99m.537 1.25c-31.644 1.96-59.21.015-140.967-1.133m139.281-.525c-40.084.86-81.704.977-140.67 1.008m-.476 1.15c.63-8.261.464-18.5.742-38.145m.01 36.218c-.308-8.303.156-18.745-1.334-37.195" stroke="#000"/></g><text x="22" y="18" font-family="Virgil" font-size="20" fill="#364fc7" text-anchor="middle" style="white-space:pre" transform="translate(73.5 41.5)">Push</text><text x="23" y="18" font-family="Virgil" font-size="20" fill="#d9480f" text-anchor="middle" style="white-space:pre" transform="translate(70.5 122.5)">Build</text><g font-family="Virgil" font-size="20" fill="#d9480f" text-anchor="middle"><text x="38" y="18" style="white-space:pre" transform="translate(222.5 266.5)">On</text><text x="38" y="44" style="white-space:pre" transform="translate(222.5 266.5)">master?</text></g><g font-family="Virgil" font-size="20" fill="#343a40" text-anchor="middle"><text x="54.5" y="18" style="white-space:pre" transform="translate(302 555.5)">Add commit</text><text x="54.5" y="44" style="white-space:pre" transform="translate(302 555.5)">comment</text></g><g font-family="Virgil" font-size="20" fill="#343a40" text-anchor="middle"><text x="38.5" y="18" style="white-space:pre" transform="translate(128 543.5)">Add PR</text><text x="38.5" y="44" style="white-space:pre" transform="translate(128 543.5)">comment</text></g><text x="58.5" y="18" font-family="Virgil" font-size="20" fill="#343a40" text-anchor="middle" style="white-space:pre" transform="translate(294.36 366.24)">Deploy site</text><g stroke-opacity=".3" fill-opacity=".3"><path d="M356 317.954c-.237 7.348-1.173 37.02-1.27 44.132m.072-41.805c.092 7.056 2.268 33.214 2.235 40.1" stroke="#000" fill="none"/><path d="M347.942 339.326c5.045 8.1 5.505 13.391 10.225 20.641m-10.262-19.516c3.81 6.368 5.749 11.342 8.403 19.01" stroke="#000" fill="none"/><path d="M362.564 338.69c-.13 8.387-4.844 13.902-4.397 21.277m4.36-20.152c-.145 6.45-2.163 11.597-6.22 19.645" stroke="#000" fill="none"/></g><g stroke-opacity=".3" fill-opacity=".3"><path d="M162.318 503.916c-.169 4.83.309 22.77.31 27.5m1.27-28.326c.195 5.106.867 25.202.984 29.733" stroke="#000" fill="none"/><path d="M160.154 518.72c.73 3.768 3.38 10.383 4.53 13.46m-4.559-12.08c1.053 2.156 1.567 4.4 4.214 12.239" stroke="#000" fill="none"/><path d="M169.781 518.428c-2.27 3.764-2.62 10.47-5.097 13.753m5.069-12.374c-.925 2.208-2.386 4.512-5.414 12.532" stroke="#000" fill="none"/></g><text x="11.5" y="20" font-family="Virgil" font-size="20" text-anchor="middle" style="white-space:pre" transform="translate(163 121.844)">✅</text><text x="11.5" y="20" font-family="Virgil" font-size="20" text-anchor="middle" style="white-space:pre" transform="translate(10 122.844)">⛔️</text><g stroke-opacity=".3" fill-opacity=".3"><path d="M52.377 134.088c-3.232.13-15.14-.297-18.356-.163m16.832-.755c-3.486.402-15.302 2.347-17.88 2.335" stroke="#000" fill="none"/><path d="M41.407 131.413c-3.247.76-5.611 3.27-7.705 4.814m7.14-5.12c-2.246 1.998-4.525 3.11-7.954 4.207" stroke="#000" fill="none"/><path d="M42.014 137.638c-3.44-1.58-6.032-1.41-8.312-1.411m7.748 1.105c-2.382.09-4.847-.704-8.562-2.018" stroke="#000" fill="none"/></g><g stroke-opacity=".3" fill-opacity=".3"><path d="M141.743 132.653c3.43-.168 16.202-1.007 19.635-.94m-20.966-.206c3.34-.051 16.441.653 20.06 1.15" stroke="#000" fill="none"/><path d="M150.747 135.26c1.542.165 4.969-.523 10.507-2.54m-10.84 2.401c2.985-.206 4.97-1.047 9.851-2.583M151.355 128.517c1.388 1.796 4.668 2.74 9.899 4.203m-10.231-4.342c2.828 1.26 4.68 1.891 9.242 4.16" stroke="#000" fill="none"/></g><g stroke-opacity=".3" fill-opacity=".3"><path d="M96.52 96.63c-.146 2.652-.392 15.234-.474 17.822m-.69-15.778c.135 2.278 2.372 11.9 2.878 14.268" stroke="#000" fill="none"/><path d="M93.335 105.709c3.104 2.474 3.208 5.818 4.38 7.583m-4.002-6.615c1.3 1.675 2.35 3.663 4.294 6.567" stroke="#000" fill="none"/><path d="M98.547 104.554c1.13 2.938-.75 6.722-.832 8.738m1.21-7.77c-.15 2.004-.546 4.313-.918 7.722" stroke="#000" fill="none"/></g><text x="11.5" y="20" font-family="Virgil" font-size="20" text-anchor="middle" style="white-space:pre" transform="translate(153.75 291.5)">⛔️</text><g stroke-opacity=".3" fill-opacity=".3"><path d="M322.776 303.7c3.445.139 16.762.581 20.26.558m-18.308 1.636c3.364.416 14.246.026 17.355-.226M332.314 309.534c2.556-.236 4.04-2.077 10.323-2.89m-9.504 2.97c3.496-1.844 7.279-2.712 8.64-3.539" stroke="#000" fill="none"/><path d="M331.955 302.773c2.576 1.295 4.142.984 10.682 3.87m-9.864-3.79c3.57.754 7.49 2.483 9 3.222" stroke="#000" fill="none"/></g><text x="11.5" y="20" font-family="Virgil" font-size="20" text-anchor="middle" style="white-space:pre" transform="translate(344.25 293.5)">✅</text><g stroke-opacity=".3" fill-opacity=".3"><path d="M196.583 302.587c-3.242.02-16.638-1.335-19.827-1.691m18.805 1.215c-2.892.236-13.316.155-16.464.005" stroke="#000" fill="none"/><path d="M188.592 298.665c-4.236 1.572-7.508 1.752-9.236 2.902m7.98-2.643c-2.928 1.683-6.505 2.685-8.564 3.125" stroke="#000" fill="none"/><path d="M188.436 304.918c-4.145-.543-7.364-2.477-9.08-3.35m7.825 3.609c-2.817-.686-6.335-2.053-8.41-3.128" stroke="#000" fill="none"/></g><g stroke-opacity=".3" fill-opacity=".3"><path d="M357.443 505.655c-.257 6.308.713 33.416.7 39.683m.946-37.512c-.55 5.896-2.177 29.849-2.08 35.871" stroke="#000" fill="none"/><path d="M349.774 525.116c5.289 6.013 4.353 16.116 7.745 17.847m-6.044-16.844c.907 6.566 3.986 13.848 6.038 17.225" stroke="#000" fill="none"/><path d="M362.736 525.539c.114 5.73-5.993 15.665-5.217 17.424m6.918-16.421c-3.967 6.357-5.765 13.48-6.924 16.802" stroke="#000" fill="none"/></g><g stroke-opacity=".6" fill-opacity=".6" fill="none"><path d="M199.36 492.307s0 0 0 0m0 0s0 0 0 0m1.81 3.235c11.64-12.227 23.842-26.945 38.875-42.174m-38.523 40.69c14.866-15.974 28.175-31.376 37.817-43.083m-33.225 46.245c18.222-22.294 40.848-46.99 57.1-66.358m-56.965 67.649c15.98-18.349 32.764-38.978 54.855-65.288m-54.523 66.99c20.86-17.89 35.28-39.889 59.527-65.877m-57.652 66.581c13.153-16.597 27.921-32.265 55.397-64.655m-53.586 67.04c11.057-14.025 25.472-29.334 56.744-63.664m-55.89 64.446c11.853-15.787 25.881-31.931 55.69-65.856m-52.052 66.915c15.285-15.481 30.296-33.8 55.933-61.981m-57.534 62.534c20.236-22.493 41.607-46.696 57.547-64.357m-52.362 66.724c19.843-22.715 37.99-45.12 55.344-62.761m-57.25 64.093c13.337-14.868 24.139-28.336 55.814-65.764m-51.369 68.745c11.175-15.452 23.083-26.877 53.57-65.373m-54.564 64.379c13.697-15.89 28.9-31.846 56.646-64.596m-53.905 69.4c18.95-25.628 37.056-45.178 54.888-67.882m-54.993 67.185c18.236-22.005 36.945-42.642 55.86-66.523m-51.911 67.75c11.116-15.573 25.412-31.631 55.265-65.03m-56.82 65.12c14.208-15.772 28.665-31.261 55.922-63.376m-52.085 64.686c18.689-19.772 36.47-39.835 55.701-61.505m-56.228 64.138c20.342-25.332 44.042-51.091 56.303-65.384m-52.387 66.405c9.365-12.82 22.026-27.323 55.505-61.69m-57.357 63.593c21.695-23.194 42.97-47.861 55.755-65.954m-53.602 68.382c16.933-15.226 30.34-31.99 55.738-64.131m-55.523 63.967c17.078-18.491 33.352-36.444 56.746-65.119m-52.551 67.088c19.08-21.64 37.655-42.183 55.116-62.329m-55.908 63.956c12.868-13.885 22.664-27.71 56.373-65.333m-53.668 65.95c15.71-14.494 28.372-29.378 55.357-61.976m-54.68 62.982c23.577-24.38 44.45-50.928 56.697-63.717m-52.828 68.097c18.244-23.712 40.327-46.768 55.896-67.192m-56.5 65.713c11.734-14.41 25.76-29.146 56.47-63.282m-52.295 67.295c12.959-17.187 29.413-32.905 54.512-65.536m-56.922 64.353c20.994-25.246 43.14-50.126 56.757-62.95m-51.284 66.919c18.087-23.514 36.01-45.48 52.674-65.259M248.1 539.776c19.383-21.187 37.806-43.54 55.275-63.803m-54.076 67.46c25.02-24.593 46.808-50.317 57.532-65.293m-56.673 64.81c14.151-14.354 24.393-28.841 57.402-64.071m-52.688 64.698c17.77-21.856 34.92-43.264 55.275-60.51m-55.684 61.748c14.973-18.067 29.624-33.958 54.513-63.397m-52.363 68.193c18.491-23.968 37.201-41.367 56.4-63.48m-55.846 63.416a6798.556 6798.556 0 0154.266-65.59m-50.138 66.254c14.01-14.218 28.525-34.645 55.155-62.941m-57.66 63.91c21.899-23.252 41.151-47.716 57.037-64.09m-55.059 66.647c23.672-25.254 43.752-47.793 57.444-64.578m-55.52 65.058c20.823-24.872 42.508-49.867 54.824-63.757" stroke="#fd7e14" stroke-width=".5"/><path d="M259.13 429.338c14.872 16.512 32.09 31.44 59.982 62.07m-58.74-59.813c10.945 12.86 22.646 24.347 60.16 59.85m.838-.021c-13.114 12.203-28.175 26.069-62.457 58.842m60.792-58.114c-17.663 17.623-37.068 36.5-59.003 59.083m-.195 1.445c-22.295-24.321-42.996-46.395-59.67-61.602m59.612 61.545c-23.106-23.186-45.433-45.607-60.402-61.07m-2.608.987c16.646-17.617 33.68-30.425 64.115-63.157m-62.697 62.277c17.793-16.751 35.256-33.999 61.552-59.9" stroke="#000"/></g><g font-family="Virgil" font-size="20" fill="#d9480f" text-anchor="middle"><text x="38" y="18" style="white-space:pre" transform="translate(222.5 456.5)">On</text><text x="38" y="44" style="white-space:pre" transform="translate(222.5 456.5)">master?</text></g><text x="11.5" y="20" font-family="Virgil" font-size="20" text-anchor="middle" style="white-space:pre" transform="translate(152.75 480.5)">⛔️</text><g stroke-opacity=".3" fill-opacity=".3"><path d="M322.636 493.936c3.593.111 18.101.03 21.448.032m-19.569 2.287c3.589.373 16.288-.815 19.165-1.029" stroke="#000" fill="none"/><path d="M334.22 500.214c2.224-2.073 4.36-3.755 8.622-4.725m-7.7 3.457c2.29-.365 4.554-2.449 8.537-4.073" stroke="#000" fill="none"/><path d="M333.668 493.466c2.289-.453 4.557-.517 9.174 2.023m-8.252-3.292c2.474 1.687 4.907 1.653 9.09 2.676" stroke="#000" fill="none"/></g><text x="11.5" y="20" font-family="Virgil" font-size="20" text-anchor="middle" style="white-space:pre" transform="translate(345.25 483.5)">✅</text><g stroke-opacity=".3" fill-opacity=".3"><path d="M196.787 490.968c-3.001.001-16.24.057-19.656-.024m18.74 2.36c-3.134.205-16.98-.775-19.862-1.115" stroke="#000" fill="none"/><path d="M184.433 489.56c-2.227.03-4.775 1.755-8.391 2.867m8.82-2.217c-2.6-.25-4.383.382-8.464 1.771" stroke="#000" fill="none"/><path d="M183.895 495.792c-2.064-1.526-4.478-1.352-7.853-3.365m8.282 4.014c-2.523-1.79-4.173-2.705-7.926-4.46" stroke="#000" fill="none"/></g><g stroke-opacity=".5" fill-opacity=".5" fill="none"><path d="M123.84 163s0 0 0 0m0 0s0 0 0 0m-.272 7.066c1.251-1.71 1.884-3.625 5.24-6.843m-5.475 5.795c2.072-1.038 3.007-2.961 5.633-5.322m-4.176 12.473c2.146-4.483 5.321-8.035 9.02-13.826m-10.621 12.413c3.995-3.307 7.16-8.194 10.774-11.591m-10.95 19.768c5.407-4.914 8.912-10.81 15.144-20.864m-13.631 19.734c3.745-6.07 10.34-12.894 14.224-18.279m-12.727 21.561c1.957-2.285 4.656-7.636 18.59-23.724m-20.257 26.36c6.027-7.602 10.586-13.508 20.41-25.737m-22.07 29.641c8.905-9.28 15.217-15.463 28.859-26.722m-27.344 27.913c6.978-7.17 12.449-13.588 25.467-28.91m-27.135 36.224c11.108-11.128 21.717-25.133 32.483-38.486m-31.674 38.99c9.714-11.514 18.356-22.275 32.11-37.612m-29.512 44.28c7.757-10.298 15.82-20.963 33.369-44.627M124.6 206.161c10.916-13.562 22.785-26.863 36.435-42.642m-38.824 47.714c15.53-13.218 25.82-28.648 44.016-48.04m-41.855 48.892c15.688-17.01 30.2-35.808 41.129-50.083m-43.383 56.119c17.445-21.471 33.83-38.037 47.676-53.58m-46.524 52.97c12.481-11.967 21.767-23.435 47.63-53.977m-46.186 60.772c12.778-13.358 22.283-27.162 52.847-60.14M124.837 224c13.973-16.446 26.967-31.983 52.625-60.405m-55.575 67.396c20.053-20.548 35.65-38.244 59.436-69.333m-57.18 68.631c20.518-24.64 42.415-48.239 58.21-66.167m-52.708 64.344c21.558-23.277 48.357-52.985 56.726-63.75m-57.297 65.798c20.314-23.478 39.431-45.52 57.85-67.042m-52.514 65.013c15.867-16.417 33.716-36.302 59.84-65.303m-59.642 67.404c21.776-25.663 42.675-51.506 58.86-68.13m-52.12 66.414c19.607-22.819 38.032-46.491 58.653-65.868m-60.84 67.797c23.168-26.23 46.297-53.397 59.303-68.493m-54.587 67.283c22.82-24.175 47.439-53.455 59.041-65.321m-58.83 65.634c14.449-16.104 28.856-32.505 59.238-67.193m-54.41 68.004c22.39-26.078 44.037-49.487 58.879-67.535m-56.865 65.885c18.934-22.408 40.02-44.864 58.73-67.294m-54.026 68.69c16.705-21.533 36.55-44.789 60.039-68.385m-59.51 67.835c12.24-14.09 25.761-28.815 57.842-65.859m-53.309 67.1c23.32-25.515 42.318-52.596 60.4-67.748m-60.64 67.078c24.721-26.994 47.893-52.989 58.635-67.947m-54.069 66.718c17.902-18.036 34.562-34.806 57.834-65.496m-57.446 65.523c18.012-19.02 33.837-37.127 59.173-66.624m-53.553 66.682c15.677-15.104 26.543-28.882 56.905-63.997m-57.118 63.882c18.102-18.206 34.094-38.057 58.206-65.443m-51.636 66.344c18.149-21.007 38.355-44.596 53.52-60.862m-53.5 60.423c16.278-18.02 31.496-37.021 51.826-59.2m-44.971 59.947c14.456-19.31 30.578-36.37 43.523-54.228m-45.692 54.256c9.972-12.608 22.128-24.913 46.067-55.224m-40.088 55.993c15.81-18.301 32.181-38.227 39.412-50.99m-40.753 49.558c11.847-11.96 22.537-24.285 43.614-47.595m-35.61 47.387c11.191-14.558 18.975-26.1 32.438-40.006m-33.811 40.781c10.687-14.921 24.218-29.102 35.905-42.357m-30.847 40.72c7.774-6.421 14.088-17.387 30.444-35.413m-29.901 35.973c10.4-12.553 22.198-26 28.972-34.836m-25.141 33.514c8.023-7.508 18.7-18.734 26.65-28.331M202.7 230.107c7.349-7.447 11.97-13.173 26.22-29.342m-21.146 28.004c8.316-6.654 17.014-16.08 22.93-22.636m-22.026 24.693c5.068-6.69 10.731-12.016 19.713-24.934m-13.61 22.822c2.295-3.386 4.77-8.67 13.158-18.202m-12.751 19.35c2.836-4.104 5.4-7.933 13.511-16.677m-10.774 17.964c5.065-4.162 5.283-5.84 10.869-11.01m-9.387 9.94c2.823-3.543 6.685-8.668 9.72-11.556m-4.784 10.932c2.189-1.45 3.536-3.934 4.648-4.33m-4.09 4.272c1.114-1.247 2.457-2.313 3.842-4.403" stroke="#fd7e14" stroke-width=".5"/><path d="M125.627 163.01c35.22.623 74.13-1.429 101.925.684m-104.427-.032c35.24-.199 71.486-.253 105.32-.926m-1.655 2.15c1.95 20.64 1.178 42.953.531 63.317m.437-65.484c.346 15.387-.594 28.51-.398 66.892m1.102-1.04c-20.848 2.628-44.985 3.745-103.165 2.939m102.98-2.183c-24.748 1.256-49.44.447-103.683.436m-1.221-1.242c-1.384-13.844-.298-27.414 1.357-66.326m-.382 67.532c-.659-24.06-.201-48.247.167-67.359" stroke="#000"/></g><g font-family="Virgil" font-size="20" fill="#d9480f" text-anchor="middle"><text x="35" y="18" style="white-space:pre" transform="translate(139 170.5)">Deploy</text><text x="35" y="44" style="white-space:pre" transform="translate(139 170.5)">preview</text></g><text x="11.5" y="20" font-family="Virgil" font-size="20" text-anchor="middle" style="white-space:pre" transform="translate(250.5 183.844)">✅</text><text x="11.5" y="20" font-family="Virgil" font-size="20" text-anchor="middle" style="white-space:pre" transform="translate(79.5 185.844)">⛔️</text><g stroke-opacity=".3" fill-opacity=".3"><path d="M122.84 196.456c-3.115-.016-16.401-.952-19.52-.977m18.5.253c-3.306.179-16.613 1.347-19.653 1.093" stroke="#000" fill="none"/><path d="M111.167 193.243c-3.316 1.663-5.25 2.975-8.94 2.929m8.53-2.411c-3.078.908-6.116 2.22-8.565 2.75" stroke="#000" fill="none"/><path d="M111.28 199.497c-3.336-.216-5.304-.784-9.052-3.325m8.644 3.843c-3.071-1.382-6.15-2.36-8.68-3.503" stroke="#000" fill="none"/></g><g stroke-opacity=".3" fill-opacity=".3"><path d="M230.612 194.452c3.283-.07 15.545.603 18.82.809m-19.958-2.06c3.116-.513 15.441.058 18.818.156" stroke="#000" fill="none"/><path d="M238.555 196.114c3.262-.215 6.231-1.381 9.03-2.102m-8.47 2.543c1.69-.591 3.884-1.473 8.838-2.732" stroke="#000" fill="none"/><path d="M238.792 189.347c3.243 1.667 6.147 2.382 8.793 4.665m-8.233-4.224c1.674.9 3.815 1.51 8.601 4.035" stroke="#000" fill="none"/></g><g stroke-opacity=".3" fill-opacity=".3"><path d="M175.344 145.868c-.06 2.914-.287 13.556-.275 16.542m-.742-17.395c-.249 3.073-.04 14.988.093 18.36" stroke="#000" fill="none"/><path d="M171.4 155.427c.11 3.396 2.383 6.48 3.61 7.739m-3.948-8.515c1.066 2.374 2.017 4.884 3.223 8.908" stroke="#000" fill="none"/><path d="M177.554 155.268c-2.213 3.5-2.262 6.643-2.544 7.898m2.206-8.674c-.68 2.408-1.476 4.963-2.931 9.067" stroke="#000" fill="none"/></g><g stroke-opacity=".3" fill-opacity=".3"><path d="M261.542 208.969c.19 5.503.787 26.472 1.11 31.45m.589-32.25c.13 5.278-1.455 25.355-1.459 30.631" stroke="#000" fill="none"/><path d="M257.722 224.235c1.513 4.31.484 7.125 4.309 13.159m-5.155-13.368c.867 2.625 1.736 6.068 4.218 14.924" stroke="#000" fill="none"/><path d="M268.301 224.69c-.786 4.126-4.118 6.842-6.27 12.704m5.424-12.913c-1.399 2.45-2.794 5.796-6.361 14.47" stroke="#000" fill="none"/></g><g stroke-opacity=".3" fill-opacity=".3"><path d="M164.757 394.04c11.061 11.126 53.569 56.635 64.617 68.055m-65.533-65.818c11.476 10.697 56.524 53.143 67.643 63.87" stroke="#000" fill="none"/><path d="M202.786 446.238c8.42 5.43 15.797 7.365 30.031 15.878m-29.686-14.088c10.836 5.325 23.07 9.45 29.13 11.622" stroke="#000" fill="none"/><path d="M216.932 431.372c5.093 9.123 9.073 14.628 15.885 30.744m-15.54-28.955c5.137 11.312 11.778 21.316 14.984 26.489" stroke="#000" fill="none"/></g><path d="M21.816 252.38c23.538 23.568 117.746 117.69 141.203 141.432M20.459 254.407c23.421 23.807 118.37 116.928 141.94 140.58" stroke="#000" fill="none" stroke-opacity=".3" fill-opacity=".3"/><path d="M21.092 147.164c.082 17.34.667 88.087.807 105.557m1.18-106.78c-.034 17.52-1.638 87.226-1.92 105.132M90.699 211.65c.267 18.196.454 91.862.4 110.005m-1.755-110.973c.25 17.75 1.088 90.655 1.122 109.122M165.39 315.384c-.12 12.596-1.22 64.587-1.397 77.686m.404-75.658c-.339 12.676-1.463 64.557-1.619 76.97" stroke="#000" fill="none" stroke-opacity=".3" fill-opacity=".3"/><g stroke-opacity=".3" fill-opacity=".3"><path d="M357.206 400.186c-10.425 10.594-53.574 53.954-64.02 64.482m63.038-65.715c-10.583 10.238-53.94 53.246-64.281 64.183" stroke="#000" fill="none"/><path d="M303.774 434.896c-.551 9.248-5.884 13.806-10.76 28.065m11.508-26.143c-2.604 6.666-6.408 12.247-13.562 25.817" stroke="#000" fill="none"/><path d="M318.418 449.272c-4.328 5.717-13.371 6.633-25.403 13.689m26.151-11.767c-6.419 2.972-13.97 4.873-28.206 11.44" stroke="#000" fill="none"/></g></svg>