<svg xmlns="http://www.w3.org/2000/svg" viewBox="0 0 672.196 988.714"><defs><style>@font-face{font-family:&quot;Virgil&quot;;src:url(&quot;https://excalidraw.com/FG_Virgil.woff2&quot;)}@font-face{font-family:&quot;Cascadia&quot;;src:url(&quot;https://excalidraw.com/Cascadia.woff2&quot;)}</style></defs><path fill="#fff" d="M0 0h672.196v988.714H0z"/><g stroke-opacity=".5" fill-opacity=".5" fill="none"><path d="M59.802 18.871s0 0 0 0m0 0s0 0 0 0m-14.24 23.54c6.934-7.022 12.078-14.273 21.913-29.235M46.077 41.332c6.936-9.42 14.914-17.872 22.524-26.082M44.738 46.488C55.37 36.36 64.224 27.283 76.23 15.863M44.725 47.686c8.515-8.182 13.83-16.757 29.594-33.065M47.233 52.194c8.436-8.563 17.852-21.539 31.716-38.1M44.543 53.416c10.864-11.813 22.6-24.444 36.923-39.382M43.05 61.724C58.452 44.24 69.502 31.456 87.573 12.56m-42.67 47.78C54.83 49.379 63.208 38.435 86.1 12.8M46.957 66.993C54.173 54.137 65.09 45.26 93.101 10.494M44.793 65.52c18.54-20.298 35.575-40.954 47.474-53.825M47.938 71.206c14.063-16.25 28.024-35.595 49.082-57.972M48.596 69.97c11.603-15.68 25.155-29.534 48.19-57.297m-48.102 60.27c15.608-12.806 24.785-30.177 53.373-56.67M50.933 72.919c14.848-18.001 30.113-35.099 49.403-58.832M52.28 77.688C66.29 59.28 79.123 45.411 102.306 18.334m-50.607 58.14c16.984-20.35 34.062-38.89 53.235-60.57M55.68 79.65c12.164-14.416 22.882-24.161 52.324-59.967M54.867 79.62c12.975-15.487 26.224-30.732 52.184-60.433M59.137 83.33c13.694-16.786 28.704-34.806 54.494-62.39M56.28 82.928c17.955-17.816 35.523-37.954 54.778-61.87m-53.41 66.03c13.094-13.256 23.95-29.122 58.355-67.196M60.419 86.275c12.97-16.287 27.959-32.91 55.232-65.617m-52.61 67.279c17.675-20.322 33.17-40.65 54.066-63.613M62.856 88.812c19.669-22.76 39.896-44.802 55.201-62.658M66.102 90.628c16.627-17.085 32.48-37.318 53.95-61.107M65.71 90.189c17.707-20.014 35.22-39.424 54.587-60.813M70.675 92.452c18.86-24.068 38.19-43.583 50.666-57.8M70.09 92.519c19.137-23.952 38.657-44.718 50.732-60.144M75.778 92.314c11.837-15.513 29.564-30.324 47.751-56.28M73.564 93.607c11.185-11.367 22.773-24.82 49.944-57.78M76.981 95.765c10.926-12.42 20.874-23.514 48.43-55.033M77.877 95.144c13.754-16.53 28.913-31.47 47.315-54.336M80.596 96.601c16.437-18.186 30.484-34.391 48.116-54.522M82.478 96.455c10.614-10.27 18.813-21.704 46.217-53.002M86.362 96.395c15.586-19.479 34.4-35.961 42.564-47.862M87.562 97.188c15.429-17.307 30.54-36.965 43.458-49.215m-37.45 45.59c15.958-13.626 29.343-28.145 34.533-39.581M93.526 94.538c11.825-12.276 23.257-26.347 36.945-40.412M102.629 93.98c4.307-8.272 11.833-14.055 24.18-30.48m-25.924 29.525c9.53-8.972 17.089-20.505 27.078-29.904" stroke="#228be6" stroke-width=".5"/><path d="M67.838 14.072c6.822-3.927 18.073-4.782 26.05-3.58 7.979 1.204 16.068 5.059 21.818 10.796 5.75 5.737 11.243 15.767 12.684 23.63 1.442 7.861-.886 16.32-4.033 23.542-3.147 7.222-8.215 15.222-14.85 19.786-6.633 4.565-16.636 7.922-24.955 7.603-8.318-.319-18.318-4.525-24.955-9.515-6.637-4.99-12.55-12.817-14.865-20.426-2.314-7.61-1.527-17.399.978-25.23 2.505-7.832 9.952-17.045 14.053-21.761 4.1-4.717 8.077-5.39 10.551-6.538 2.475-1.147 3.907-1.233 4.297-.348m23.503-1.195c7.606 1.9 16.734 8.793 21.93 15.4 5.196 6.607 8.872 16.206 9.246 24.243.374 8.036-2.528 17.073-7.004 23.975-4.477 6.903-12.407 14.11-19.856 17.44-7.449 3.33-16.85 4.155-24.837 2.537-7.987-1.619-17.301-6.363-23.088-12.248-5.786-5.884-10.27-15.043-11.63-23.062-1.358-8.02-.263-17.846 3.478-25.052 3.74-7.205 12.017-14.138 18.965-18.181 6.948-4.044 17.196-5.417 22.722-6.083 5.525-.665 8.807 1.5 10.432 2.09 1.625.591-.368.975-.683 1.455" stroke="#000"/></g><g stroke-opacity=".5" fill-opacity=".5" fill="none"><path d="M115.487 187.223s0 0 0 0m0 0s0 0 0 0m-.947 6.555c5.423-4.94 9.045-10.923 22.24-22.515m-21.515 22.61c6.976-9.623 13.938-16.317 20.28-23.807m-20.236 29.083c5.395-8.154 13.163-15.473 27.441-29.322m-26.409 30.274c10.053-12.123 19.455-23.83 26.383-31.34M114.8 204.635c8.728-10.97 18.594-19.772 36.272-38.679m-36.705 40.639c10.24-10.625 19.268-22.082 35.49-40.14m-33.473 44.473c6.57-11.23 17.77-20.745 42.194-47.189m-43.46 48.993c9.078-12.55 19.235-23.53 43.43-51.166m-42.916 55.57c16.47-19.327 32.72-33.343 47.58-53.686m-44.755 52.356c16.563-21.703 33.425-41.754 44.351-52.509m-44.152 57.22c17.961-25.198 39.457-47.748 50.577-58.443m-49.394 56.028c17.125-18.808 33.918-37.542 48.58-55.607m-47.53 59.127c13.93-13.853 28.516-28.263 49.587-55.213m-49.23 55.976c13.723-12.903 24.783-27.706 50.105-56.285m-47.356 62.379c11.908-17.346 23.197-31.48 50.321-60.848m-51.073 59.797c20.597-22.747 39.994-46.775 50.634-59.372m-47.765 63.49c15.716-16.427 29.355-34.872 52.589-60.999m-53.304 60.758c12.757-14 24.286-29.183 53.37-61.402m-53.968 64.26c13.579-13.699 23.595-24.765 54.912-63.131m-53.35 64.163c14.303-18.214 30.956-36.242 54.645-62.633m-51.885 63.621c19.298-22.708 40.988-47.658 55.944-61.249m-54.942 62.412c14.668-16.94 30.242-34.13 54.323-62.762m-51.698 65.16c16.799-19.75 34.334-39.221 54.96-61.962M134.266 238.2c10.325-12.544 22.787-25.284 53.295-60.005m-48.857 61.95c19.486-19.417 34.653-42.096 50.701-61.665m-52.539 63.127c12.769-13.733 24.203-26.355 53.332-61.26m-47.238 63.195c20.501-25.259 39.553-47.238 47.978-57.805m-49.694 56.133c16.31-17.835 32.224-36.991 50.67-58.396m-44.543 59.938c16.037-19.082 36.637-41.045 47.595-55.43m-49.907 56.563c14.326-16.206 28.05-32.845 48.952-55.78m-44.833 58.692c19.075-20.99 38.475-41.922 45.14-56.876m-45.352 56.113c15.734-18.583 30.64-34.693 47.01-54.969m-39.408 51.315c8.476-10.05 18.855-21.861 42.295-45.269m-42.53 46.898c14.099-17.767 30.92-37.413 41.175-49.232m-34.489 49.492c8.108-12.314 18.157-26.173 34.743-41.334m-35.02 39.595c9.828-13.317 21.206-26.142 36.185-41.33m-32.844 42.572c8.95-11.85 19.8-23.09 28.915-35.347m-28.069 33.743c12.45-11.881 22.982-25.197 28.932-32.485m-22.916 30.487c8.216-5.65 12.196-11.036 21.96-23.399m-21.409 25.354c3.72-5.924 9.972-10.893 21.437-25.64" stroke="#228be6" stroke-width=".5"/><path d="M167.304 162.696c7.456 1.757 15.699 8.387 20.705 14.799 5.007 6.411 8.634 15.608 9.335 23.67.701 8.062-1.43 17.951-5.128 24.703-3.699 6.752-9.94 12.565-17.062 15.81-7.122 3.244-17.453 4.757-25.667 3.655-8.213-1.102-17.867-4.832-23.613-10.266-5.747-5.433-9.157-14.334-10.865-22.334-1.708-8-2.346-18.308.614-25.667 2.96-7.358 10.258-14.151 17.149-18.485 6.89-4.333 17.374-7.084 24.198-7.515 6.825-.43 13.487 3.682 16.75 4.934 3.262 1.25 3.154 2.09 2.823 2.573m-23.593-5.824c7.627-1.399 16.716-.202 23.507 3.65 6.79 3.851 13.753 11.785 17.238 19.46 3.486 7.676 5.062 18.404 3.674 26.594-1.388 8.19-6.633 17-12.002 22.545-5.37 5.545-12.62 9.166-20.214 10.724-7.594 1.558-17.523 1.687-25.349-1.376-7.826-3.063-17.364-9.753-21.606-17-4.243-7.248-4.484-18.324-3.851-26.485.633-8.16 2.82-16.325 7.648-22.478 4.827-6.154 16.359-11.741 21.318-14.442 4.96-2.7 6.958-1.494 8.438-1.762 1.48-.268.194-.625.443.155" stroke="#000"/></g><g stroke-opacity=".5" fill-opacity=".5" fill="none"><path d="M123.764 281.737s0 0 0 0m0 0s0 0 0 0m-5.32 13.201c4.625-4.995 10.215-11.629 16.454-22.209m-16.53 22.454c5.031-5.462 10.604-11.916 17.65-21.08m-20.357 29.834c11.163-9.847 21.438-22.488 29.571-34.455m-29.848 33.936c7.903-9.304 16.882-20.389 31.583-35.997m-29.404 41.23c5.758-10.407 13.326-16.688 32.91-41.125m-35.264 41.103c9.976-12.531 20.607-23.818 35.837-40.435m-35.493 46.275c12.377-12.888 23.02-23.927 39.87-45.74m-38.533 45.52c8.76-10.127 17.355-19.813 39.113-46.211m-40.462 52.257c14.76-19.096 30.073-34.136 46.067-51.568m-44.302 51.55c16.787-19.643 35.304-41.502 43.746-51.784m-42.074 55.297c11.365-9.804 21.934-22.452 47.81-53.957m-49.42 56.05c17.1-18.615 32.345-38.042 47.157-55.608m-44.856 58.497c18.141-20.886 38.889-43.173 48.156-57.807m-48.846 60.175c11.605-15.706 25.552-29.321 50.929-58.59m-47.2 59.126c15.51-16.108 30.578-33.782 50.255-58.815m-51.832 59.97c19.83-21.356 38.746-42.678 53.143-60.343m-49.508 62.277c13.007-10.938 21.187-23.725 52.6-59.518M124.343 336c12.992-16.048 26.797-30.972 52.63-60.223m-48.736 64.502c18.491-26.561 40.35-48.048 52.406-64.266m-52.669 63.442c11.142-14.027 22.455-27.218 53.346-63.311m-51.853 66.98c20.293-26.286 39.749-49.523 53.04-61.683m-51.912 59.348c15.411-17.388 30.086-34.118 52.81-61.862m-51.034 63.908c13.324-13.393 29.006-30.662 54.496-61m-54.094 61.86c18.229-19.442 36.711-41.126 53.57-60.648m-52.375 63.703c18.544-18.755 31.644-32.4 54.864-60.247m-54.074 60.974c12.102-13.624 26.068-27.877 53.678-60.146m-46.555 61.588c17.041-19.898 34.957-39.803 50.356-57.989m-51.1 56.379c12.831-14.548 27.162-32.243 49.714-57.273m-47.45 57.579c13.127-14.405 29.644-26.802 51.809-55.398m-51.152 55.87c12.363-13.389 24.966-27.868 48.29-54.46M150.2 347.945c13.93-14.535 28.255-33.395 43.53-49.43m-44.632 51.865c12.11-13.564 23.89-26.488 45.893-53.827m-40.31 55.036c11.847-17.042 28.998-34.111 42.546-48.854m-43.459 47.787c12.221-12.952 23.31-27.289 43.137-48.215m-36.116 47.888c9.225-9.406 16.043-20.323 37.254-41.012m-38.561 42.16c10.917-14.579 22.315-27.667 36.414-42.945m-34.89 45.972c7.7-9.263 15.343-18.221 34.09-42.576m-32.387 41.71c11.08-12.88 21.403-26.614 33.557-39.57m-24.565 35.33c5.54-6.612 15.894-16.834 22.39-30.446m-24.614 31.612c7.849-8.203 16.1-17.098 25.707-29.781" stroke="#228be6" stroke-width=".5"/><path d="M154.99 266.412c7.545-.41 17.853 3.309 24.36 7.992 6.506 4.683 12.07 12.49 14.68 20.107 2.611 7.617 3.025 17.694.986 25.597-2.04 7.903-7.28 16.692-13.221 21.82-5.942 5.13-14.699 8.04-22.429 8.955-7.73.914-16.932.274-23.951-3.469-7.02-3.742-14.518-11.641-18.162-18.986-3.644-7.344-4.82-17.26-3.7-25.08 1.118-7.821 5.1-15.898 10.413-21.844 5.314-5.946 14.743-11.454 21.467-13.832 6.724-2.38 14.22-1.204 18.878-.44 4.658.763 9.098 4.08 9.07 5.02m2.718-2.17c6.88 3.276 12.148 12.207 15.392 19.7 3.244 7.494 5.021 17.19 4.071 25.259-.95 8.068-4.428 17.448-9.772 23.15-5.344 5.7-14.581 9.495-22.292 11.058-7.71 1.562-16.553 1.073-23.973-1.684-7.42-2.757-15.802-8.6-20.545-14.857-4.743-6.257-8.097-14.554-7.912-22.687.185-8.132 4.282-19.37 9.02-26.107 4.74-6.738 12.032-11.553 19.411-14.318 7.38-2.765 19.142-2.621 24.863-2.273 5.722.349 7.826 3.338 9.465 4.364 1.64 1.025.479 1.31.37 1.789" stroke="#000"/></g><g stroke-opacity=".5" fill-opacity=".5" fill="none"><path d="M53.784 115s0 0 0 0m0 0s0 0 0 0m-.033 6.27c1.32-1.667 2.606-3.601 4.854-5.837m-4.74 5.78c1.14-1.224 2.055-2.513 5.275-6.118m-5.967 12.248c3.451-1.662 4.12-5.435 12.423-13.526m-12.19 12.724c2.488-2.028 6.19-4.78 11.572-12.061m-9.755 17.888c3.454-6.456 11.003-12.393 15.39-16.069m-16.238 18.075c5.448-7.85 8.978-12.264 15.918-18.663m-16.841 24.97c4.22-9.347 9.233-14.734 23.59-24.79m-23.85 22.228c5.853-4.515 9.73-9.39 22.222-22.557m-22.112 29.87c10.126-9.084 18.698-21.981 25.436-31.826m-25.672 31.24c7.108-7.711 14.51-15.385 26.898-30.212m-28.426 35.543c9.363-8.869 22.168-20.782 35.576-34.772m-32.66 35.723c9.185-9.917 19.704-22.333 31.21-35.824M55.62 154.38c14-12.574 27.149-31.043 36.132-40.998m-35.104 41.32c10.28-12.236 24.023-26.681 33.308-40.273M61.33 153.39c11.527-13.135 27.018-26.442 35.878-40.223m-36.646 42.613c7.368-9.134 15.046-17.222 36.394-40.693m-31.242 39.797c12.062-11.788 23.105-25.483 33.621-39.49m-33.508 40.446c13.002-14.586 24.057-29.336 35.112-40.448m-30.459 39.607c11.136-9.725 14.89-19.168 35.605-39.888m-34.738 39.987c12.706-15.558 25.656-28.456 35.95-40.855m-29.606 42.572c7.727-11.664 13.208-20.316 36.136-41.567m-36.68 40.09c10.042-13.074 20.55-24.183 34.863-39.196m-27.436 39.616c10.665-11.676 21.762-26.266 31.584-41.738m-33.818 40.64c14.525-15.823 27.275-30.026 34.276-39.727M85.84 155.078c10.869-10.442 22.722-20.796 37.724-39.925M87.6 155.293c6.828-6.937 13.698-16.144 33.427-39.91M92.48 155.244c10.131-9.22 21.398-19.868 29.114-32.936M93.12 154.351c9.754-9.894 20.063-21.922 28.742-32.414m-23.76 31.488c8.08-8.312 17.18-18.76 24.904-26.453m-23.909 28.663c8.037-9.396 15.871-20.01 22.643-27.676m-16.018 24.923c5.358-3.873 12.826-11.612 17.054-17.187m-19.09 18.694c6.419-6.458 12.169-14.714 18.775-19.07m-12.376 19.13c3.717-6.078 8.769-9.03 12.218-15.926m-12.827 16.592c2.102-4.178 5.24-6.35 12.876-14.958m-6.68 14.116c1.703-3.13 3.795-5.646 6.828-8.817m-7.39 9.028c.972-1.861 2.899-4.14 6.853-7.798" stroke="#fd7e14" stroke-width=".5"/><path d="M52.387 113.785c20.144 2.93 40.436 2.526 70.097-.761m-69.437 1.573c15.584.291 27.96.129 67.586.683m-.988-1.063c1.445 10.07 2.273 22.92.687 40.556m.803-40.23c-.472 10.987.44 21.772.386 38.2m.624 1.665c-12.99-2.381-29.29.513-67.287-.327m66.039-.343c-22.482-1.327-47.26-1.105-67.603-1.087m1.352-.98c-1.286-14.663-1.747-28.139-1.405-34.812m.926 36.536c-.734-9.485-1.102-17.481-1.188-38.836" stroke="#000"/></g><g stroke-opacity=".5" fill-opacity=".5" fill="none"><path d="M112.833 371s0 0 0 0m0 0s0 0 0 0m.094 6.344c.148-.822 1.831-3.732 5.407-5.343m-5.52 5.061c1.497-1.456 2.627-3.522 4.994-5.423m-6.399 11.14c5.555-5.464 10.38-9.317 12-11.948m-10.205 12.541c3.123-4.28 5.812-7.577 10.738-12.593m-10.248 20.345c3.397-9.143 10.958-12.827 14.408-21m-16.231 19.111c4.95-4.384 7.45-6.341 16.277-18.877m-13.838 26.03c5.72-8.54 9.12-13.247 18.737-25.394m-20.889 23.428c9.978-8.604 18.456-18.108 21.16-23.906m-20.522 30.08c5.472-5.215 10.635-12.287 24.418-30m-24.184 29.889c7.044-7.04 15.347-16.13 27.029-28.718m-25.715 36.419c7.464-12.427 17.937-21.598 29.226-37.534m-31.123 36.683c12.196-14.357 24.58-27.808 32.59-35.945m-32.074 39.995c13.172-15.426 28.12-30.51 38.407-40.492m-36.224 40.217c8.217-10.21 17.888-19.865 35.424-38.906m-29.458 37.974c14.896-15.493 25.636-30.499 35.86-37.72m-35.549 39.024c8.7-11.396 16.718-22.295 34.176-41.171m-28.963 42.445c11.569-12.943 22.29-26.096 35.519-41.383m-35.929 39.085c8.852-9.979 18.659-22.19 34.924-38.543m-28.98 39.726c13.516-16.444 23.657-30.424 34.75-41.697m-35.205 39.897c7.806-8.033 14.904-17.75 33.594-38.777m-30.48 39.111c14.607-11.831 25.69-27.821 34.983-39.936m-32.704 41.825c11.895-15.002 24.655-30.916 33.58-41.59m-29.674 41.448c11.029-12.805 23.367-29.403 35.717-42.438m-34.081 41.457c9.555-11.925 18.019-23.707 34.744-39.677m-28.658 40.879c9.959-13.53 17.958-26.547 32.504-42.605m-35.16 41.94c14.11-15.656 26.664-28.57 36.418-39.694m-28.082 39.409c8.836-9.76 16.275-24.884 30.968-38.897m-32.781 38.328c11.567-14.392 23.7-28.04 34.4-39.272m-27.794 38.65c7.786-10.4 16.64-20.742 32.786-40.842m-34.641 41.921c9.743-12.592 21.814-23.767 33.959-40.005m-27.507 40.391c14.24-16.263 25.23-28.49 33.05-38.27m-33.486 36.86c6.437-7.646 15.11-15.169 34.177-37.705m-30.79 39.586c10.774-12.48 19.27-21.487 32.282-33.062m-30.978 32.203c7.58-9.266 17.616-19.972 28.98-33.132m-21.77 32.658c4.26-7.425 10.01-14.237 22.98-26.947m-25.08 27.079c9.322-10.021 18.483-19.467 24.665-26.808m-18.293 29.055c5.314-6.565 6.85-11.893 17.041-23.966m-17.328 21.488c4.825-4.87 8.81-10.34 18.346-20.469m-14.048 22.272c3.558-6.401 7.051-9.121 13.804-18.2m-13.712 17.379c4.975-4.98 8.594-11.521 12.978-15.8m-8.45 16.526c4.708-5.06 5.173-7.156 8.744-10.554m-7.828 8.883c3.63-2.646 6.805-6.65 7.735-9.15m-2.723 10.358c1.453-1.429 2.266-2.746 3.055-3.765m-2.854 3.6c1.136-1.476 2.81-2.95 3.097-4.04" stroke="#fd7e14" stroke-width=".5"/><path d="M111.609 371.217c29.191-.89 56.48-.904 86.076 1.478m-84.298-1.551c30.039 1.15 59.227.092 82.935.56m1.178-1.294c.824 12.434 1.434 23.133-2.222 36.884m.96-35.81c1.564 13.833 1.733 28.094-.308 36.843m-1.096 1.83c-17.183-2.471-38.688 1.116-83.252.07m85.85-.876c-20.625-.064-39.773.33-83.79-.638m-1.723.821c1.495-12.59-.108-22.17-.333-37.492m1.16 37.819c.535-10.899-.737-19.784.257-37.977" stroke="#000"/></g><g stroke-opacity=".5" fill-opacity=".5" fill="none"><path d="M191.833 422s0 0 0 0m0 0s0 0 0 0m-.108 5.602c1.127-.277 3.244-2.344 5.878-4.861m-5.678 5.718c1.121-2.073 2.854-3.49 4.665-6.148m-4.832 10.862c3.699-5.234 8.145-9.074 11.206-10.418m-11.788 11.338c4.016-4.706 8.71-9.26 11.951-12.273m-11.009 18.326c2.356-5.127 8.157-8.859 17.052-15.926m-17.2 15.877c6.808-7.012 11.545-13.787 16.29-16.973m-14.479 24.198c4.431-7.962 7.738-15.117 19.802-26.493m-20.95 26.02c6.932-7.798 13.46-15.719 21.367-24.843m-20.849 28.946c5.032-5.542 12.118-15.55 26.548-27.276m-27.382 29.21c9.952-12.015 18.269-22.74 26.231-31.036m-25.967 35.054c7.306-5.804 12.898-15.34 29.793-34.534m-31.483 36.001c12.447-11.737 23.143-25.662 32.253-36.949m-27.388 42.588c10.858-14.982 23.37-31.844 32.39-43.18m-34.62 41.991c11.28-13.014 23.324-28.073 35.243-41.219m-27.573 40.557c9.354-12.388 16.481-24.675 34.718-39.354m-35.379 39.552c10.407-12.858 19.645-25.392 33.638-41.302m-31.103 41.819c15.345-16.845 27.84-28.165 38.065-39.39M205.54 462.44c9.27-10.51 17.898-23.72 32.87-39.448m-27.939 38.568c10.635-14.46 22.623-27.63 34.028-38.544m-33.413 38.254c8.747-10.487 17.88-21.072 33.779-40.42m-29.879 41.264c8.995-13.256 22.89-23.819 33.147-40.01m-32.583 40.456c13.928-15.647 26.048-29.381 34.239-39.512m-28.412 37.412c5.478-7.002 15.72-13.878 34.894-36.919m-36.096 38.68c11.234-12.972 21.289-24.155 36.151-39.55m-30.555 39.472c8.327-10.532 21.304-23.782 33.684-38.339m-32.857 38.308c8.503-10.992 17.788-21.772 34.452-39.889m-30.701 39.632c14.141-14.87 27.971-28.594 36.864-39.277m-35.33 40.148c8.603-10.349 15.377-19.921 34.107-41.416m-28.458 39.723c9.137-9.158 16.595-19.509 34.723-38.673m-36.2 40.586c9.202-11.748 18.183-21.43 35.112-41.552m-30.5 41.997c11.845-12.187 21.04-27.52 31.861-38.394m-31.406 37.727c12.386-13.556 20.999-24.765 32.873-38.229m-27.773 36.016c12.624-9.41 23.714-23.34 27.094-32.009m-26.697 34.335c8.109-9.225 15.12-18.055 27.104-31.68m-21.264 32.218c7.26-9.744 18.849-19.466 20.18-27.03m-20.01 25.227c5.195-4.517 8.82-9.972 21.552-25.674m-14.544 28.062c2.94-7.589 6.977-11.859 15.78-21.17m-18.097 19.689c4.784-5.012 8.657-8.806 16.964-20.775m-9.793 20.897c1.814-3.097 4.928-7.228 10.38-12.159m-10.99 10.7c2.001-4 5.906-7.57 10.911-13.006m-6.862 14.062c1.719-2.993 3.753-4.558 6.601-6.65m-6.109 6.68c2.195-2.557 4.872-5.699 6.137-6.585" stroke="#fd7e14" stroke-width=".5"/><path d="M193.632 422.302c18.357-.898 39.978-.397 80.146-.481m-81.5.112c18.852 1.575 39.582-.149 80.197.868m.572-2.478c-.801 12.774-2.955 22.723-1.275 41.074m-.912-39.561c1.362 12.606 2.063 26.273.939 38.08m.63.913c-23.696-1.455-48.67-.692-79.4-1.294m79.299 1.307c-27.786-1.466-53.401-.278-80.669-1.443m-1.494.194c3.442-9.078 1.972-13.358 1.063-39.528m1.21 40.588c.549-10.237-.174-18.572-1.128-38.621" stroke="#000"/></g><g stroke-opacity=".5" fill-opacity=".5" fill="none"><path d="M319.833 555s0 0 0 0m0 0s0 0 0 0m.368 6.947c1.07-1.637 2.7-3.562 4.534-6.818m-5.43 6.602c1.439-2.032 3.711-3.652 5.781-6.169m-3.573 10.89c1.717-3.937 6.857-9.034 7.832-10.376m-8.91 11.383c3.387-5.105 7.27-9.719 10.422-12.437m-10.03 19.287c2.634-6.048 4.982-9.951 16.106-18.604m-17.357 18.631c4.573-6.823 9.656-13.223 16.254-18.465m-17.063 24.759c5.208-8.4 10.592-13.378 21.964-25.47m-20.025 23.609c5.904-9.093 14.853-16.357 20.4-24.778m-20.256 31.133c6.106-11.3 16.083-21.8 26.486-31.139m-27.013 30.632c7.72-7.18 15.744-15.97 25.581-29.031m-25.249 38.226c6.57-14.607 15.32-21.884 32.132-40.016m-34.013 37.879c11.28-12.677 23.46-25.558 32.657-37.513m-31.63 42.415c7.397-8.888 16.22-19.97 36.804-42.549m-37.489 42.792c14.38-13.766 25.003-28.112 38.335-42.463m-30.006 41.722c6.9-7.83 15.293-17.659 33.154-42.74m-35.821 43.926c13.638-13.121 25.694-27.368 37.477-42.578m-30.839 41.106c12.19-13.09 24.85-24.27 35.77-38.71m-37.345 40.861c10.013-10.663 17.385-19.4 37.291-42.583m-31.644 41.709c8.34-10.152 20.35-21.703 38.705-42.358m-37.717 42.205c12-12.455 22.719-25.004 35.855-41.887m-29.23 42.865c10.347-16.021 24.047-32.294 34.08-42.65m-35.367 42.223c8.514-10.741 18.785-21.648 35.721-42.867m-31.365 41.685c14.276-15.23 28.7-33.139 38.077-39.607m-37.324 41.176c8.904-12.578 18.063-22.454 36.905-43.87m-30.42 41.787c6.243-9.674 16.903-20.551 36.94-42.321m-38.08 44.672c12.98-15.017 24.286-30.318 35.898-42.213m-29.042 40.88c14.089-17.787 24.75-30.729 36.976-42.942m-39.41 44.002c11.468-11.632 19.738-24.062 36.652-43.178m-29.793 43.487c5.83-9.18 13.824-20.038 34.553-42.68m-35.241 41.487c12.029-14.467 24.53-28.495 35.595-41.018m-28.816 40.538c10.614-10.85 18.26-24.778 34.102-41.812m-35.475 42.824c7.576-9.565 15.04-17.3 36.62-41.955m-33.493 40.091c9.452-8.776 18.975-19.073 38.12-41.677m-36.845 42.429c13.178-14.146 26.107-27.681 38.086-41.182m-32.092 42.921c10.346-12.436 18.867-19.586 37.16-42.674m-36.752 41.776c8.664-8.9 15.71-18.666 35.828-41.854m-29.435 43.244c7.728-8.929 13.832-18.65 35.846-42.266m-38.118 40.745c13.778-15.27 27.472-31.202 38.145-42.101M390.795 595.3c9.691-8.488 19.328-19.713 34.855-40.98m-37.215 41.97c8.402-8.502 16.246-18.32 36.804-42.021m-30.298 41.105c8.98-7.18 15.639-19.956 36.934-40.4m-36.522 42.167c8.527-12.435 20.788-25.194 36.043-42.676m-31.757 44.738c8.522-13.48 20.74-26.805 36.886-45.182m-36.563 44.503c8.358-10.82 16.58-20.01 35.57-43.105m-31.87 42.595c11.8-14.975 22.944-28.533 39.585-41.034m-38.754 39.912c10.044-10.897 20.863-23.02 37.557-41.306m-33.63 42.018c13.661-11.744 23.698-25.147 37.96-40.734m-37.237 41.46c10.524-11.099 18.94-20.05 37.649-43.253m-30.675 41.412c11.68-14.91 25.912-27.736 35.005-42.118m-35.742 43.677c14.065-16.752 25.98-30.319 37.958-43.887m-33.282 43.222c8.86-9.932 18.605-21.904 37.777-42.088m-37.41 42.906c11.1-13.969 23.307-26.14 36.065-42.115m-29.03 40.51c8.507-10.542 17.957-24.118 34.74-41.852M427.2 596.636c9.391-10.662 19.991-22.29 35.364-41.063m-32.793 43.936c9.142-12.675 21.48-21.672 31.794-38.662m-30.74 35.858c10.54-10.618 20.747-21.92 32.093-34.803m-25.431 36.073c6.93-8.453 15.912-19.662 26.808-29.624m-27.732 29.662c6.31-8.376 12.631-15.715 26.862-31.168m-20.976 30.948c7.491-7.244 12.323-16.348 21.057-22.152m-21.21 22.594c3.602-5.043 7.564-9.74 19.1-23.207m-12.728 21.081c2.138-2.354 3.75-6.523 15.253-17.705m-15.423 19.458c5.463-6.557 9.968-14.182 14.07-17.92m-11.465 17.093c5.826-3.797 8.566-9.274 10.582-10m-9.03 10.843c3.263-4.112 4.892-6.709 9.337-11.1m-3.145 10.033c.993-1.35 2.25-2.832 4.132-4.851m-5.062 5.155c1.98-1.827 4.16-3.937 5.175-5.26" stroke="#fd7e14" stroke-width=".5"/><path d="M321.818 553.37c43.161-.064 86.18.765 142.013 2.357m-143.268-.456c34.375 1.089 67.079.25 140.286.682m1.412-.958c-.137 11.74-2.302 24.761-.68 42.184m-.027-41.288c.842 16.189 1.338 32.792.345 40.406m-.95-.201c-36.488 2.385-74.478.879-139.607-.99m140.138.923c-44.264-.338-88.493.694-140.88 1.805m-2.335-1.196c2.265-11.031 3.643-22.03.602-43.376m.29 43.267c.833-9.98 1.45-19.368 1.536-41.877" stroke="#000"/></g><g stroke-opacity=".6" fill-opacity=".6" fill="none"><path d="M433.693 667.807s0 0 0 0m0 0s0 0 0 0m1.874 4.274c13.382-16.13 25.91-29.747 38.456-45.425M437.162 670.5c11.677-13.126 22.276-26.489 36.993-42.856m-33.454 46.23c13.096-18.852 31.583-36.773 57.385-63.855m-58.608 62.587c18.328-20.452 36.497-40.855 56.13-63.873m-52.49 67.941c15.467-21.252 35.167-40.698 57.707-66.604m-58.795 65.638c15.493-15.607 29.64-34.434 57.974-64.885m-56.612 68.49c24.026-26.11 44.075-51.107 60.14-63.613m-58.674 63.11c14.03-14.656 25.868-28.372 55.889-64.25m-53.943 65.238c20.968-20.586 44.37-47.093 59.253-61.4m-58.846 64.055c17.63-19.482 32.658-37.88 58.184-66.49m-55.988 67.904c21.061-25.058 42.608-49.933 57.928-63.407m-56.385 62.96c19.005-21.015 39.089-42.23 57.576-63.649m-54.372 68.277c12.185-15.382 27.915-34.61 56.637-63.762m-57.77 62.676c14.899-17.326 30.05-34.48 57.469-64.048m-53.539 69.298c19.173-23.003 37.542-46.205 54.795-68.535M456.858 689.5c11.735-13.375 24.423-27.187 56.297-64.548m-52.987 68.706c12.698-13.389 21.164-26.53 56.75-65.73m-56.689 65.939c19.203-23.534 38.424-47.6 56.526-65.532m-54.061 67.325c16.338-20.145 34.059-41.408 57.132-62.539m-57.185 62.894c20.107-23.69 40.786-47.733 54.996-65.166m-53.572 67.687c18.55-17.766 31.713-35.919 58.137-63.103m-56.393 63.806c10.727-14.952 22.506-29.033 55.204-66.166m-54.487 67.123c13.376-14.76 27.429-29.481 56.956-62.98m-56.42 63.66c12.644-12.93 23.682-26.076 57.742-63.248m-52.273 64.6c15.57-17.328 30.676-32.938 53.69-61.922m-55.033 63.247c21.503-24.311 41.64-48.34 55.2-62.924m-51.582 65.816c19.386-24.171 42.26-47.487 56.688-65.135m-57.658 64.58c19.879-19.491 37.732-42.818 56.513-63.748M477.13 709.2c15.718-15.809 30.016-35.449 57.268-65.494M476.65 709.97c16.744-19.435 32.965-39.928 56.677-65.54m-52.215 69.276c18.524-25.1 40.382-48.215 54.345-64.567M479.38 713.81c14.4-18.113 30.278-34.427 56.379-65.408m-53.497 68.172c22.81-26.893 41.356-48.09 55.764-65.86m-55.72 64.357c16.72-18.438 32.804-37.636 56.332-63.99m-53.15 68.832c18.89-23.569 40.453-47.423 56.314-64.816m-56.735 62.194c15.412-17.22 30.419-34.758 56.284-62.451m-52.198 67.025c13.304-17.263 26.358-33.144 55.064-66.063m-55.145 65.796c21.283-26.448 44.06-51.136 55.358-64.74m-53.226 68.823c11.942-14.61 23.951-30.716 56.644-65.181m-56.877 63.428c19.976-21.946 37.58-44.282 56.331-64.353m-54.066 66.688c24.25-26.085 44.939-50.956 54.687-63.164m-54.865 63.633c18.69-19.745 34.639-41.005 56.077-63.786m-53.145 67.311c19.892-22.985 40.368-47.534 55.728-63.203m-55.6 62.164c15.091-16.519 28.873-32.544 56.467-62.334" stroke="#fd7e14" stroke-width=".5"/><path d="M496.23 607.778c13.96 14.053 30.637 34.23 58.758 61.07m-60.5-62.82c17.106 17.762 33.102 34.882 59.836 62.293m1.468.776c-14.573 12.443-27.11 26.477-60.689 59.146m57.965-59.64c-22.461 21.657-45.96 45.873-58.534 57.76m-.349 1.99c-16.604-19.086-34.55-32.466-61.634-60.689m62 58.521c-15.14-14.773-30.103-29.264-60.92-59.205m-1.8.77c16.753-15.686 28.1-27.21 63.581-59.085m-61.925 60.03c14.392-17.155 30.729-31.233 60.515-62.696" stroke="#000"/></g><g stroke-opacity=".5" fill-opacity=".5" fill="none"><path d="M521.47 911.286s0 0 0 0m0 0s0 0 0 0m.122 6.357c1.975-2.976 4.14-3.916 4.824-6.08m-4.905 6.35c1.101-2.283 3.222-3.63 5.175-6.495m-5.087 12.236c1.6-3.301 4.384-4.695 10.118-11.552m-10.743 10.848c3.241-2.125 5.985-5.073 11.428-11.823m-12.019 18.945c6.465-5.387 7.328-11.26 17.605-16.666m-17.56 15.906c3.645-3.924 8.55-6.781 17.169-17.786m-16.314 22.425c7.984-4.362 11.988-14.64 22.78-21.38m-22.615 22.34c6.017-4.763 12.242-12.878 20.305-23.901m-21.956 31.974c10.735-8.57 14.617-18.333 28.337-33.006m-26.898 31.593c6.588-6.667 10.683-13.433 26.814-29.271m-25.856 35.01c11.88-13.414 23.028-28.322 30.656-37.683m-32.617 37.663c8.072-7.266 15.884-15.573 33.133-35.353m-30.381 41.483c4.143-8.318 13.304-17.68 34.43-42.462m-36.639 43.163c14.18-15.673 27.254-30.514 38.102-43.114m-38.488 48.978c15.2-14.043 29.473-31.716 41.885-49.62m-41.364 50.793c14.75-18.532 30.812-34.656 43.185-50.336m-43.727 53.315c20.954-20.5 37.53-40.732 48.932-51.33m-47.536 52.164c15.475-16.451 29.6-33.353 47.63-53.294m-48.585 61.39c23.4-24.965 44.498-50.535 53.67-63.742m-52.4 63.037c17.191-21.238 36.387-42.734 51.968-61.83m-54.49 67.773c24.934-27.348 49.047-51.347 60.545-65.66m-58.516 66.158c15.17-18.627 33.125-38.058 57.162-67.038m-54.235 68.765c13.294-15.512 25.689-29.367 58.935-69.828M523.445 980.4c13.195-13.776 25.615-27.645 62.21-69.543m-55.152 69.819c17.39-21.16 35.06-40.398 58.474-70.432m-58.52 70.907c23.32-27.567 46.69-54.971 60.454-70.006m-56.88 68.84c26.214-26.197 49.043-54.424 62.978-69.635m-62.843 71.818c13.525-17.142 27.431-32.319 62.515-70.662m-56.742 67.77c18.49-22.896 41.654-43.51 59.983-69.241m-59.067 71.051c17.822-22.73 37.027-42.724 60.827-69.974m-58.066 69.682c22.267-19.988 39.687-42.11 63.215-71.02m-60.722 71.31c21.584-28.086 45.621-55.056 61.105-69.972m-56.176 71.395c10.94-14.177 23.602-29.268 60.743-71.404m-61.594 70.221c16.31-17.868 34.032-36.771 61.505-69.938m-57.459 70.532c21.59-27.242 43.66-50.097 64.198-71.777m-62.59 71.789c22.914-26.339 47.135-53.38 60.833-71.7m-55.922 71.67c18.044-20.265 33.32-36.966 59.491-68.708m-59.123 68.78c13.558-14.848 26.537-29.514 60.277-70.865m-53.7 71.868c16.872-20.657 31.842-40.567 61.471-72.704m-61.413 70.636c20.502-22.384 40.845-46.104 59.051-70.572m-54.897 70.573c14.338-13.708 26.492-31.669 59.928-70.207m-59.156 71.624c14.93-20.215 31.745-37.661 59.403-70.487m-55.423 70.4c14.01-17.932 27.574-31.913 60.927-68.842m-60.513 67.244c21.751-25.385 43.776-49.89 60.954-69.058m-56.191 70.297c20.3-24.322 38.985-46.34 60.1-71.194m-60.055 70.157c14.428-16.156 30.014-33.223 60.982-70.28m-56.238 72.077c21.47-24.1 38.074-42.603 61.423-72.5m-59.198 71.037c22.995-25.877 46.457-54.003 60.206-70.396m-57.35 70.044c22.958-24.357 44.764-48.1 61.056-69.97m-60.7 70.051c22.309-25.467 45.382-49.845 61.62-70.22m-55.746 71.077c16.38-19.375 33.555-37.218 62.85-68.716m-61.822 67.938c15.631-18.732 29.853-36.8 61-70.058m-55.43 70.48c12.224-14.853 22.446-27.345 57.53-70.318m-58.17 70.733c17.652-22.657 36.816-44.27 59.099-69.276m-55.216 69.307c17.767-23.262 37.573-39.646 54.851-63.498m-53.507 63.6c17.61-21.259 34.032-41.387 54.787-63.977m-48.729 62.97c17.159-17.98 35.294-37.985 48.694-55.482m-49.503 56.349c10.19-12.501 20.492-25.53 49.154-57.365m-43.343 55.358c9.764-7.955 17.685-20.837 45.285-50.15m-45.61 50.741c17.148-19.48 34.153-40.399 44.729-50.89m-40.243 50.915c14.901-11.914 27.268-27.28 37.783-43.323m-36.31 43.933c9.265-11.443 17.596-20.913 37.07-44.532m-30.863 44.68c10.563-11.692 21.516-25.357 31.634-35.999m-32.121 34.869c5.536-6.443 11.668-14.674 31.112-37.051m-26.076 39.468c7.793-8.778 16.569-18.288 25.842-32.138m-27.53 30.218c12.026-11.204 21.583-22.884 29.447-30.753m-21.313 32.393c2.343-4.508 9.064-11.849 19.759-28.35m-21.43 27.23c7.097-8.7 16.014-18.533 22.103-26.197m-17.194 26.5c3.113-2.94 7.665-8.498 16.919-19.225m-17.62 19.205c5.295-5.788 10.447-12.365 17.388-20.504m-9.405 18.963c.84-5.294 6.373-9.838 8.874-11.481m-10.15 12.68c4.13-5.341 8.75-10.758 10.536-14.226m-6.59 14.364c2.977-3.287 5.289-4.675 7.981-7.837m-7.728 7.975c2.435-2.046 4.068-3.535 7.2-7.777" stroke="#868e96" stroke-width=".5"/><path d="M523.25 912.56c39.483-2.01 81.772-1.828 137.78-.282m-139.818-1.467c38.43.854 76.051-.042 140.605.931m1.67-.322c-1.958 20.993-2.914 41.324-.148 68.95m-1.92-68.65c1.324 19.986 1.625 42.542 1.316 66.099m1.211 2.69c-36.185-1.934-71.96-4.098-141.518-.171m138.851-1.988c-32.532-.908-64.093-1.915-140.174 1.18m-.296-2.394c-.922-22.94 1.755-43.443 2.285-66.607m-1.912 67.79c.72-17.432 1.106-36.755.147-67.951" stroke="#000"/></g><g stroke-opacity=".5" fill-opacity=".5" fill="none"><path d="M345.19 899.266s0 0 0 0m0 0s0 0 0 0m.044 6.158c.867-1.843 1.977-3.255 4.402-5.231m-4.754 5.742c2.141-2.077 3.998-4.398 4.919-6.054m-5.897 11.7c5.341-5.278 8.88-10.26 12.764-11.376m-10.835 10.812c3.558-3.852 6.76-7.933 10.149-11.109m-9.917 19.228c5.382-7.326 6.718-12.954 15.757-19.079m-17.29 17.233c5.754-4.324 9.85-10.573 16.995-18.36m-14.42 22.598c6.252-7.986 13-12.994 19.762-20.662m-20.62 22.853c6.417-7.857 14.531-17.173 21.188-24.452m-20.654 30.309c5.923-8.105 10.192-15.324 25.632-28.892m-27.625 29.27c8.353-9.262 15.41-18.95 27.638-29.555m-26.955 34.66c9.659-6.963 17.34-17.338 31.25-35.405m-32.557 36.894c10.574-11.149 18.227-21.395 32.03-38.38m-30.9 42.443c11.831-13.137 22.97-27.594 34.808-40.756m-34.57 41.003c8.767-8.961 17.182-18.128 36.455-41.14m-36.405 47.824c15.738-17.15 29.773-36.984 44.028-48.72m-44.602 49.21c9.961-12.42 21.884-24.922 43.628-48.868m-41.735 54.961c14.66-18.273 31.043-36.51 44.327-52.97m-46.187 52.292c14.02-15.312 28.72-30.8 48.046-53.091m-49.837 58.836c17.764-13.785 30.962-34.187 55.301-59.158m-53.608 59.423c17.497-18.402 35.36-39.347 53.487-60.9m-52.346 69.856c21.37-25.819 44.159-53.933 58.895-67.586m-60.714 65.014c23.159-26.365 46.727-51.695 58.168-66.639m-56.677 72.66c21.105-25.321 44.628-51.884 62.646-73.252m-61.823 71.902c15.27-15.696 28.95-32.36 62.993-70.936m-59.215 69.282c16.157-15.51 34.694-34.999 65.03-71.088m-63.722 72.75c16.76-18.695 30.368-35.9 61.897-70.95m-53.747 69.209c22.14-24.566 41.633-49.156 58.05-71.25m-59.915 72.494c13.23-15.234 25.785-31.093 61.437-70.656m-55.433 72.23c21.27-28.11 47.322-56.917 61.37-72.057m-61.412 71.437c13.626-16.667 26.425-34.587 59.924-70.784m-54.593 71.746c14.491-20.535 29.931-38.772 60.245-74.517m-62.314 72.931c24.81-27.934 48.804-56.502 62.354-72.352m-57.261 70.908c12.77-13.124 27.028-26.74 64.244-68.561m-63.195 69.77c22.202-24.173 44.678-50.174 62.131-69.891m-56.252 69.692c22.812-26.675 45.379-54.392 60.465-71.34m-61.97 71.633c14.676-15.23 27.442-30.676 63.284-70.742m-55.163 69.492c12.663-13.889 27.27-33.738 61.697-69.9m-62.714 71.934c17.222-21.7 34.423-41.863 61.622-70.746m-56.714 69.967c14.073-14.127 25.836-31.04 62.913-71.27m-63.814 71.048c24.289-24.68 45.264-50.867 62.235-71.307m-56.092 70.886c23.718-25.305 45.214-47.956 60.778-68.37m-60.13 68.385c15.943-20.28 35.503-40.905 59.997-70.327m-55.295 70.97c15.524-18.966 34.376-43.225 61.481-69.349m-62.484 68.88c15.825-18.252 31.351-35.703 62.402-70.518m-57.823 68.978c21.551-18.077 38.643-41.636 57.627-60.475m-55.21 62.047c18.018-22.385 36.697-43.39 55.45-63.318m-50.39 65.54c13.957-15.402 26.191-31.681 47.873-61.052m-49.446 60.037c18.768-23.072 38.759-44.833 50.296-58.783m-43.435 59.824c14.406-20.164 32.796-38.983 46.604-54.02m-47.46 52.41c16.705-20.29 35.128-40.127 45.9-53.205m-39.602 55.059c8.313-10.376 15.16-21.452 37.791-49.01m-38.175 46.34c12.239-14.34 25.445-30.596 39.92-45.157m-34.484 47.362c7.148-9.675 15.793-18.395 32.348-43.588m-33.177 42.013c8.306-10.886 17.599-21.056 35.039-39.748m-28.79 41.908c11.474-12.995 19.588-25.856 30.124-37.262m-30.358 35.79c11.031-12.908 23.758-26.394 27.972-33.612m-23.202 34.685c6.697-7.757 9.033-14.671 25.25-28.719m-25.926 27.61c6.14-6.737 11.875-13.901 23.81-27.167m-18.553 28.67c7.701-9.207 14.324-17.237 19.42-25.605m-19.345 23.911c6.911-8.47 13.214-15.762 20.302-21.375m-15.961 19.368c6.098-5.085 10.313-8.798 16.67-14.22m-14.76 15.494c2.905-3.569 4.758-7.125 13.63-14.45m-8.525 13.937c1.941-.51 4.806-3.886 7.681-9.177m-7.216 9.928c2.148-1.904 3.985-4.773 7.706-10.046m-2.89 10.178c.702-1.11 1.512-1.48 2.699-3.541m-2.354 3.206c.603-1.03 1.763-2.054 2.588-2.979" stroke="#868e96" stroke-width=".5"/><path d="M346.342 897.293c41.836 3.205 81.153 1.824 114.247.822m-115.988.626c35.612.584 69.8-.708 115.306-.031m-.71.376c.29 15.892.797 29.175.197 71.368m1.25-70.656c-.345 18.132-.338 35.521-.668 68.506m1.992-.138c-33.594-1.146-61.636 2.563-118.31 2.244m116.183-1.931c-35.678.713-72.983-.306-114.707-.134m1.313 1.559c-2.017-18.698.234-30.873-2.038-70.93m.995 70.648c.949-16.249-.991-29.968-.43-71.24" stroke="#000"/></g><g stroke-opacity=".5" fill-opacity=".5" fill="none"><path d="M517.658 725.174s0 0 0 0m0 0s0 0 0 0m-.682 6.522c2.066-1.856 2.993-3.47 5.89-6.728m-5.484 6.897c1.675-2.216 3.086-3.857 5.222-6.657m-5.274 13.255c3.587-2.959 6.3-7.516 11.805-13.676M517.92 737.98c3.032-5.235 6.96-8.898 10.299-13.585m-11.74 19.26c7.235-6.323 12.375-15.288 15.11-16.605m-14.785 16.693c6.723-6.853 10.519-13.221 16.769-18.51m-13.722 23.704c5.133-7.363 11.865-14.82 19.847-25.251m-22.085 26.363c6.588-7.81 13.201-14.683 21.821-25.637m-20.728 31.254c7.58-6.74 12.187-17.1 24.461-30.976m-25.121 31.653c6.371-8.425 14.365-17.926 24.955-30.722m-24.757 38.058c7.985-11.34 15.661-23.33 31.79-40.56m-31.991 39.486c10.416-13.516 21.452-27.34 31.846-37.867m-30.841 42.301c9.016-10.79 17.468-17.297 34.143-40.565m-32.652 39.847c12.064-17.61 27.268-31.72 34.045-40.858m-30.529 39.291c14.973-15.013 26.57-26.253 37.137-38.648m-36.602 39.44c7.567-7.803 16.141-16.455 35.82-41.487m-31.633 39.404c13.064-7.915 20.166-22.252 35.798-38.78m-33.826 40.255c9.716-12.705 21.078-25.703 35.253-39.766m-30.52 38.679c14.832-14.167 27.558-31.252 35.182-38.25m-35.26 40.905c9.488-11.385 19.214-22.522 35.86-41.932m-30.533 41.251c8.206-9.892 20.666-21.32 33.159-41.382m-32.415 41.7c12.048-15.012 23.814-27.09 34.379-41.158M545.69 763.99c12.623-12.525 25.292-29.967 36.909-37.593m-35.727 39.035c8.572-10.463 19.294-21.526 34.266-40.622m-30.201 40.237c11.572-11.884 22.988-27.427 34.427-39.327m-32.895 38.68c7.348-8.48 15.001-16.886 34.197-38.432m-31.886 41.3c13.711-15.729 26.372-27.666 39.02-44.129m-37.225 42.19c11.179-13.202 21.862-24.172 35.564-40.704m-28.068 41.27c10.937-15.71 21.572-30.847 32.807-40.567M562.9 765.505c7.488-9.594 15.297-18.442 34.981-40.486m-29.368 39.601c7.877-8.862 14.755-17.71 35.22-38.31m-36.71 38.72c12.214-14.774 25.29-27.895 35.777-40.828m-31.328 40.776c13.152-13.855 24.136-27.2 34.503-38.055m-33.613 38.653c11.978-12.153 22.208-26.24 34.504-39.718m-30.567 39.97c11.532-8.089 16.618-21.404 36.212-41.594m-33.867 41.96c13.52-18.04 26.786-33.617 34.428-41.143m-27.94 39.696c9.86-10.85 17.921-22.85 34.716-37.744m-35.978 39.061c8.247-11.801 17.845-22.417 34.04-40.027m-28.697 39.477c12.853-15.447 27.765-30.423 33.697-40.428m-34.12 41.224c9.938-12.281 18.893-22.406 34.541-41.297M595.698 763.5c10.183-10.413 21.855-22.025 33.65-38.589m-34.486 39.836c6.228-8.193 12.894-16.931 34.36-38.812m-31.244 39.214c8.442-6.72 14.604-18.44 35.724-41.516m-34.969 42.062c8.01-8.604 15.783-17.093 35.984-39.683m-28.894 40.119c7.653-11.284 15.215-22.864 33.164-41.296m-35.446 40.65c10.529-12.363 22.568-25.176 36.398-39.726m-28.957 41.284c8.732-14.339 18.136-25.608 33.308-42.816m-33.62 42.267c10.443-14.23 22.485-28.742 34.092-40.46m-29.984 41.08c12.564-15.549 22.726-24.99 34.149-41.308M614.501 766.2c11.018-12.01 20.947-22.277 36.612-41.656m-30.851 39.808c8.089-7.963 16.153-13.036 36.495-37.029m-36.038 38.355c12.5-15.536 26.114-28.857 33.73-41.02m-29.923 40.373c10.272-10.259 17.199-15.917 35.808-40.58m-34.546 41.962c8.02-9.881 16.625-18.801 34.276-40.504m-28.55 41.169c5.547-11.936 14.68-19.777 27.085-35.815m-26.683 34.787c5.932-9.198 13.322-17.572 28.02-34.22m-23.597 33.726c7.639-7.91 14.423-16.245 24.504-26.744m-24.317 26.4c5.103-6.13 9.37-11.971 22.323-26.345m-16.759 25.195c1.859-1.91 7.574-7.763 19.092-20.137m-19.96 21.314c6.688-6.866 14.687-15.714 18.798-20.719m-11.871 19.682c1.326-3.582 6.067-5.905 12.593-12.583m-13.48 13.396c3.658-4.616 8.183-10.562 12.18-14.908m-7.918 15.038c4.384-3.384 7.53-7 9.637-8.261m-8.723 8.088c2.207-2.676 5.176-6.365 7.155-8.691" stroke="#868e96" stroke-width=".5"/><path d="M517.552 724.37c51.29 1.151 105.712 1.569 142.456.54m-142.59-.53c44.34.721 88.275 1.415 140.65.1m-1.06-.09c2.316 13.948 2.726 30.35 1.566 40.637m1.067-40.715c-1.161 11.7-.366 24.805-.049 38.99m.536 1.25c-31.644 1.96-59.21.015-140.966-1.133m139.28-.525c-40.084.86-81.704.977-140.67 1.008m-.476 1.15c.63-8.261.464-18.5.742-38.145m.01 36.218c-.308-8.303.157-18.745-1.334-37.195" stroke="#000"/></g><text x="29.5" y="18" font-family="Virgil" font-size="20" fill="#364fc7" text-anchor="middle" style="white-space:pre" transform="translate(55 40)">Stage</text><text x="18" y="18" font-family="Virgil" font-size="20" fill="#d9480f" text-anchor="middle" style="white-space:pre" transform="translate(67.5 124)">Lint</text><text x="34" y="18" font-family="Virgil" font-size="20" fill="#364fc7" text-anchor="middle" style="white-space:pre" transform="translate(120.833 193)">Commit</text><text x="22" y="18" font-family="Virgil" font-size="20" fill="#364fc7" text-anchor="middle" style="white-space:pre" transform="translate(131.833 298)">Push</text><text x="22.5" y="18" font-family="Virgil" font-size="20" fill="#d9480f" text-anchor="middle" style="white-space:pre" transform="translate(207.333 428)">Test</text><text x="23" y="18" font-family="Virgil" font-size="20" fill="#d9480f" text-anchor="middle" style="white-space:pre" transform="translate(128.833 379)">Build</text><text x="50" y="18" font-family="Virgil" font-size="20" fill="#d9480f" text-anchor="middle" style="white-space:pre" transform="translate(337.833 564)">Lighthouse</text><g font-family="Virgil" font-size="20" fill="#d9480f" text-anchor="middle"><text x="38" y="18" style="white-space:pre" transform="translate(456.833 632)">On</text><text x="38" y="44" style="white-space:pre" transform="translate(456.833 632)">master?</text></g><g font-family="Virgil" font-size="20" fill="#343a40" text-anchor="middle"><text x="54.5" y="18" style="white-space:pre" transform="translate(536.333 921)">Add commit</text><text x="54.5" y="44" style="white-space:pre" transform="translate(536.333 921)">comment</text></g><g stroke-opacity=".3" fill-opacity=".3"><path d="M85.234 96.462c.335 3.448 2.386 17.496 2.764 21.104m-.703-21.906c.09 3.014-.937 16.633-.508 20.08" stroke="#000" fill="none"/><path d="M83.45 105.374c1.44 2.95 3.195 6.275 3.852 10.251m-4.18-10.183c1.156 4.257 2.186 7.795 3.22 10.643" stroke="#000" fill="none"/><path d="M90.705 105.288c-1.03 2.963-1.748 6.317-3.403 10.337m3.075-10.27c-1.433 4.295-2.99 7.863-4.035 10.73" stroke="#000" fill="none"/></g><g stroke-opacity=".3" fill-opacity=".3"><path d="M156.027 249.123c-.033 2.415-1.382 11.601-1.293 13.956m.46-14.413c.307 2.526 1.471 13.069 1.627 15.692" stroke="#000" fill="none"/><path d="M154.242 256.515c.003 3.334 1.137 4.643 2.518 8.47m-3.199-7.35c.564 1.852 1.83 3.176 3.042 7.02" stroke="#000" fill="none"/><path d="M159.56 256.042c-1.633 3.533-2.138 4.987-2.8 8.944m2.12-7.825c-.826 1.968-.948 3.415-2.277 7.494" stroke="#000" fill="none"/></g><g font-family="Virgil" font-size="20" fill="#343a40" text-anchor="middle"><text x="38.5" y="18" style="white-space:pre" transform="translate(362.333 909)">Add PR</text><text x="38.5" y="44" style="white-space:pre" transform="translate(362.333 909)">comment</text></g><text x="58.5" y="18" font-family="Virgil" font-size="20" fill="#343a40" text-anchor="middle" style="white-space:pre" transform="translate(528.693 731.74)">Deploy site</text><g stroke-opacity=".3" fill-opacity=".3"><path d="M590.332 683.454c-.236 7.348-1.172 37.02-1.27 44.132m.073-41.805c.092 7.056 2.268 33.214 2.235 40.1" stroke="#000" fill="none"/><path d="M582.275 704.826c5.046 8.1 5.506 13.391 10.225 20.641m-10.261-19.516c3.81 6.368 5.748 11.342 8.402 19.01" stroke="#000" fill="none"/><path d="M596.897 704.19c-.13 8.387-4.844 13.902-4.397 21.277m4.361-20.152c-.146 6.45-2.163 11.597-6.22 19.645" stroke="#000" fill="none"/></g><text x="11.5" y="20" font-family="Virgil" font-size="20" text-anchor="middle" style="white-space:pre" transform="translate(144 123)">✅</text><text x="11.5" y="20" font-family="Virgil" font-size="20" text-anchor="middle" style="white-space:pre" transform="translate(10 123)">⛔️</text><g stroke-opacity=".3" fill-opacity=".3"><path d="M52.354 134.388c-2.984.075-15.462 1.008-18.708 1.055m17.697 1.238c-3.109-.291-15.183-2.983-18.418-3.128" stroke="#000" fill="none"/><path d="M41.405 131.996c-1.918.053-5.23 1.536-8.338 1.833m8.955-1.991c-2.128.358-4.854.664-9.317 2.088" stroke="#000" fill="none"/><path d="M40.526 138.188c-1.65-1.837-4.695-2.238-7.459-4.36m8.076 4.202c-1.873-1.14-4.385-2.342-8.438-4.104" stroke="#000" fill="none"/></g><g stroke-opacity=".3" fill-opacity=".3"><path d="M123.918 135.383c3.112.202 15.093.68 18.19.755m-19.43-1.6c3.466-.097 17.801.177 21.517.075" stroke="#000" fill="none"/><path d="M135.216 137.035c3.363-.712 5.848-.789 8.078-3.277m-8.434 4.413c3.757-1.553 7.94-2.935 9.164-3.315" stroke="#000" fill="none"/><path d="M135.203 130.264c3.363 1.282 5.852 3.2 8.091 3.494m-8.447-2.358c3.727 1.152 7.916 2.474 9.177 3.456" stroke="#000" fill="none"/></g><g stroke-opacity=".3" fill-opacity=".3"><path d="M396.65 869.416c-.168 4.83.31 22.77.311 27.5m1.27-28.326c.195 5.106.867 25.202.984 29.733" stroke="#000" fill="none"/><path d="M394.487 884.22c.73 3.768 3.38 10.383 4.53 13.46m-4.558-12.08c1.052 2.156 1.566 4.4 4.214 12.239" stroke="#000" fill="none"/><path d="M404.114 883.928c-2.27 3.764-2.62 10.47-5.097 13.753m5.07-12.374c-.926 2.208-2.387 4.512-5.414 12.532" stroke="#000" fill="none"/></g><text x="11.5" y="20" font-family="Virgil" font-size="20" text-anchor="middle" style="white-space:pre" transform="translate(221.333 378.344)">✅</text><text x="11.5" y="20" font-family="Virgil" font-size="20" text-anchor="middle" style="white-space:pre" transform="translate(68.333 379.344)">⛔️</text><g stroke-opacity=".3" fill-opacity=".3"><path d="M110.71 390.588c-3.231.13-15.14-.297-18.355-.163m16.831-.755c-3.485.402-15.301 2.347-17.88 2.335" stroke="#000" fill="none"/><path d="M99.74 387.913c-3.247.76-5.611 3.27-7.705 4.814m7.14-5.12c-2.246 1.998-4.524 3.11-7.954 4.207" stroke="#000" fill="none"/><path d="M100.347 394.138c-3.439-1.58-6.031-1.41-8.312-1.411m7.748 1.105c-2.382.09-4.846-.704-8.562-2.018" stroke="#000" fill="none"/></g><g stroke-opacity=".3" fill-opacity=".3"><path d="M200.077 389.153c3.429-.168 16.2-1.007 19.634-.94m-20.966-.206c3.34-.051 16.442.653 20.06 1.15" stroke="#000" fill="none"/><path d="M209.08 391.76c1.542.165 4.969-.523 10.507-2.54m-10.84 2.401c2.985-.206 4.97-1.047 9.851-2.583" stroke="#000" fill="none"/><path d="M209.688 385.017c1.388 1.796 4.668 2.74 9.9 4.203m-10.232-4.342c2.828 1.26 4.68 1.891 9.242 4.16" stroke="#000" fill="none"/></g><g stroke-opacity=".3" fill-opacity=".3"><path d="M154.853 353.13c-.146 2.652-.392 15.234-.473 17.822m-.69-15.778c.134 2.278 2.371 11.9 2.877 14.268" stroke="#000" fill="none"/><path d="M151.668 362.209c3.105 2.474 3.208 5.818 4.38 7.583m-4.001-6.615c1.3 1.675 2.35 3.663 4.293 6.567" stroke="#000" fill="none"/><path d="M156.88 361.054c1.13 2.938-.75 6.722-.832 8.738m1.211-7.77c-.15 2.004-.547 4.313-.919 7.722" stroke="#000" fill="none"/></g><text x="11.5" y="20" font-family="Virgil" font-size="20" text-anchor="middle" style="white-space:pre" transform="translate(294.333 428.344)">✅</text><text x="11.5" y="20" font-family="Virgil" font-size="20" text-anchor="middle" style="white-space:pre" transform="translate(149.333 429.344)">⛔️</text><g stroke-opacity=".3" fill-opacity=".3"><path d="M191.89 440.205c-2.938-.17-15.21-1.125-18.095-1.1m16.664.507c-3.037-.055-14.797 1.083-17.481.904" stroke="#000" fill="none"/><path d="M182.132 437.331c-3.074 1.498-4.379 1.109-9.317 3.995m8.834-4.562c-3.238 1.98-6.334 2.898-8.801 4.201" stroke="#000" fill="none"/><path d="M182.313 443.583c-3.162-.163-4.516-2.212-9.498-2.257m9.015 1.69c-3.253-.233-6.412-1.527-8.982-2.05" stroke="#000" fill="none"/></g><g stroke-opacity=".3" fill-opacity=".3"><path d="M274.694 439.593c3.13.163 15.372.935 18.697.784m-19.704-1.698c2.882-.158 15.177-.046 18.63.118" stroke="#000" fill="none"/><path d="M283.138 441.746c4.071-.185 6.106-2.344 10.055-2.415m-10.67 2.58c2.876-.826 4.654-1.536 10.28-2.858" stroke="#000" fill="none"/><path d="M283.31 434.978c4.012 2.286 5.984 2.6 9.883 4.353m-10.497-4.189c2.865.672 4.604 1.46 10.107 3.91" stroke="#000" fill="none"/></g><text x="11.5" y="20" font-family="Virgil" font-size="20" text-anchor="middle" style="white-space:pre" transform="translate(484.713 564.033)">✅</text><text x="11.5" y="20" font-family="Virgil" font-size="20" text-anchor="middle" style="white-space:pre" transform="translate(275.713 564.033)">⛔️</text><g stroke-opacity=".3" fill-opacity=".3"><path d="M318.575 575.292c-3.208-.083-15.194-.155-18.138-.235m20.004-.674c-3.451.077-17.825 1.952-21.209 2.225" stroke="#000" fill="none"/><path d="M307.636 572.202c-2.948 1.688-5.92 3.13-8.065 3.692m7.804-3.28c-2.353.787-5.143 2.74-7.964 4.316" stroke="#000" fill="none"/><path d="M308.309 578.42c-3.204-.427-6.404-1.097-8.738-2.526m8.476 2.938c-2.525-1.043-5.513-.92-8.636-1.902" stroke="#000" fill="none"/></g><g stroke-opacity=".3" fill-opacity=".3"><path d="M464.473 575.544c3.216.104 16.342.38 19.562.475m-20.885-1.777c3.014.363 16.656 2.768 19.95 3.307M472.959 579.346c3.747-.831 7.172-.896 9.368-1.853m-8.923 1.85c2.084-.852 5.434-.73 10.045-1.694" stroke="#000" fill="none"/><path d="M474.094 572.671c3.322 1.465 6.356 3.694 8.233 4.822m-7.787-4.825c1.792.875 4.848 2.724 8.909 4.981" stroke="#000" fill="none"/></g><text x="11.5" y="20" font-family="Virgil" font-size="20" text-anchor="middle" style="white-space:pre" transform="translate(388.083 657)">⛔️</text><g stroke-opacity=".3" fill-opacity=".3"><path d="M557.11 669.2c3.445.139 16.76.581 20.26.558m-18.308 1.636c3.363.416 14.245.026 17.354-.226M566.648 675.034c2.555-.236 4.04-2.077 10.323-2.89m-9.505 2.97c3.497-1.844 7.28-2.712 8.64-3.539" stroke="#000" fill="none"/><path d="M566.288 668.273c2.577 1.295 4.142.984 10.683 3.87m-9.864-3.79c3.57.754 7.49 2.483 9 3.222" stroke="#000" fill="none"/></g><text x="11.5" y="20" font-family="Virgil" font-size="20" text-anchor="middle" style="white-space:pre" transform="translate(578.583 659)">✅</text><g stroke-opacity=".3" fill-opacity=".3"><path d="M430.916 668.087c-3.242.02-16.638-1.335-19.827-1.691m18.805 1.215c-2.891.236-13.316.155-16.464.005" stroke="#000" fill="none"/><path d="M422.926 664.165c-4.237 1.572-7.508 1.752-9.237 2.902m7.98-2.643c-2.928 1.683-6.504 2.685-8.564 3.125" stroke="#000" fill="none"/><path d="M422.77 670.418c-4.146-.543-7.365-2.477-9.081-3.35m7.825 3.609c-2.817-.686-6.334-2.053-8.409-3.128" stroke="#000" fill="none"/></g><g stroke-opacity=".3" fill-opacity=".3"><path d="M591.777 871.155c-.258 6.308.713 33.416.7 39.683m.946-37.512c-.55 5.896-2.178 29.849-2.082 35.871" stroke="#000" fill="none"/><path d="M584.107 890.616c5.29 6.013 4.353 16.116 7.745 17.847m-6.044-16.844c.907 6.566 3.987 13.848 6.038 17.225" stroke="#000" fill="none"/><path d="M597.07 891.039c.113 5.73-5.994 15.665-5.218 17.424m6.918-16.421c-3.966 6.357-5.764 13.48-6.924 16.802" stroke="#000" fill="none"/></g><g stroke-opacity=".6" fill-opacity=".6" fill="none"><path d="M433.693 857.807s0 0 0 0m0 0s0 0 0 0m1.81 3.235c11.64-12.227 23.842-26.945 38.876-42.174m-38.524 40.69c14.866-15.974 28.175-31.376 37.818-43.083m-33.226 46.245c18.222-22.294 40.849-46.99 57.1-66.358m-56.965 67.649c15.98-18.349 32.764-38.978 54.855-65.288m-54.523 66.99c20.861-17.89 35.28-39.889 59.528-65.877m-57.653 66.581c13.153-16.597 27.922-32.265 55.397-64.655m-53.586 67.04c11.057-14.025 25.472-29.334 56.744-63.664m-55.889 64.446c11.852-15.787 25.88-31.931 55.69-65.856m-52.053 66.915c15.285-15.481 30.296-33.8 55.933-61.981m-57.534 62.534c20.236-22.493 41.607-46.696 57.548-64.357m-52.363 66.724c19.844-22.715 37.99-45.12 55.345-62.761m-57.25 64.093c13.336-14.868 24.138-28.336 55.813-65.764m-51.368 68.745c11.174-15.452 23.083-26.877 53.57-65.373m-54.565 64.379c13.697-15.89 28.9-31.846 56.647-64.596m-53.906 69.4c18.95-25.628 37.056-45.178 54.888-67.882m-54.992 67.185c18.235-22.005 36.945-42.642 55.86-66.523m-51.912 67.75c11.116-15.573 25.412-31.631 55.265-65.03m-56.82 65.12c14.208-15.772 28.665-31.261 55.923-63.376m-52.086 64.686c18.69-19.772 36.47-39.835 55.701-61.505m-56.227 64.138c20.341-25.332 44.041-51.091 56.303-65.384m-52.388 66.405c9.366-12.82 22.026-27.323 55.505-61.69m-57.357 63.593c21.696-23.194 42.97-47.861 55.755-65.954m-53.601 68.382c16.933-15.226 30.34-31.99 55.737-64.131m-55.523 63.967c17.078-18.491 33.352-36.444 56.746-65.119m-52.55 67.088c19.08-21.64 37.655-42.183 55.115-62.329m-55.908 63.956c12.869-13.885 22.664-27.71 56.373-65.333M473.1 895.65c15.71-14.494 28.373-29.378 55.358-61.976m-54.681 62.982c23.577-24.38 44.45-50.928 56.697-63.717m-52.828 68.097c18.245-23.712 40.328-46.768 55.896-67.192m-56.5 65.713c11.735-14.41 25.76-29.146 56.47-63.282m-52.295 67.295c12.959-17.187 29.413-32.905 54.513-65.536m-56.923 64.353c20.995-25.246 43.14-50.126 56.757-62.95m-51.283 66.919c18.086-23.514 36.01-45.48 52.673-65.259m-54.52 64.179c19.382-21.187 37.805-43.54 55.274-63.803m-54.076 67.46c25.02-24.593 46.808-50.317 57.533-65.293m-56.674 64.81c14.151-14.354 24.394-28.841 57.402-64.071m-52.688 64.698c17.77-21.856 34.92-43.264 55.275-60.51m-55.684 61.748c14.973-18.067 29.624-33.958 54.513-63.397m-52.363 68.193c18.492-23.968 37.202-41.367 56.4-63.48m-55.846 63.416a6798.556 6798.556 0 0154.266-65.59m-50.137 66.254c14.01-14.218 28.524-34.645 55.155-62.941m-57.66 63.91c21.898-23.252 41.15-47.716 57.036-64.09m-55.059 66.647c23.673-25.254 43.752-47.793 57.445-64.578m-55.521 65.058c20.823-24.872 42.508-49.867 54.824-63.757" stroke="#fd7e14" stroke-width=".5"/><path d="M493.463 794.838c14.873 16.512 32.09 31.44 59.982 62.07m-58.74-59.813c10.945 12.86 22.646 24.347 60.161 59.85m.837-.021c-13.114 12.203-28.174 26.069-62.457 58.842m60.792-58.114c-17.663 17.623-37.067 36.5-59.003 59.083m-.194 1.445c-22.296-24.321-42.997-46.395-59.672-61.602m59.613 61.545c-23.105-23.186-45.433-45.607-60.402-61.07m-2.607.987c16.646-17.617 33.68-30.425 64.115-63.157M433.19 857.16c17.794-16.751 35.256-33.999 61.552-59.9" stroke="#000"/></g><g font-family="Virgil" font-size="20" fill="#d9480f" text-anchor="middle"><text x="38" y="18" style="white-space:pre" transform="translate(456.833 822)">On</text><text x="38" y="44" style="white-space:pre" transform="translate(456.833 822)">master?</text></g><text x="11.5" y="20" font-family="Virgil" font-size="20" text-anchor="middle" style="white-space:pre" transform="translate(387.083 846)">⛔️</text><g stroke-opacity=".3" fill-opacity=".3"><path d="M556.97 859.436c3.593.111 18.1.03 21.447.032m-19.568 2.287c3.588.373 16.287-.815 19.164-1.029" stroke="#000" fill="none"/><path d="M568.554 865.714c2.223-2.073 4.36-3.755 8.621-4.725m-7.7 3.457c2.29-.365 4.554-2.449 8.538-4.073" stroke="#000" fill="none"/><path d="M568.001 858.966c2.289-.453 4.558-.517 9.174 2.023m-8.252-3.292c2.475 1.687 4.907 1.653 9.09 2.676" stroke="#000" fill="none"/></g><text x="11.5" y="20" font-family="Virgil" font-size="20" text-anchor="middle" style="white-space:pre" transform="translate(579.583 849)">✅</text><g stroke-opacity=".3" fill-opacity=".3"><path d="M431.12 856.468c-3.001.001-16.24.057-19.656-.024m18.741 2.36c-3.134.205-16.98-.775-19.863-1.115" stroke="#000" fill="none"/><path d="M418.766 855.06c-2.227.03-4.775 1.755-8.39 2.867m8.82-2.217c-2.6-.25-4.383.382-8.464 1.771" stroke="#000" fill="none"/><path d="M418.228 861.292c-2.064-1.526-4.478-1.352-7.853-3.365m8.282 4.014c-2.523-1.79-4.173-2.705-7.925-4.46" stroke="#000" fill="none"/></g><g stroke-opacity=".3" fill-opacity=".3"><path d="M155.431 146.118c.042 2.645 1.238 12.742 1.628 15.007m.123-15.579c-.19 2.266-1.244 11.148-1.24 13.635" stroke="#000" fill="none"/><path d="M154.332 151.483c.39 3.05.225 5.407 1.814 7.953m-2.233-7.495c.001 1.836 1.101 2.904 2.226 7.108M159.66 151.822c-1.44 2.896-3.435 5.136-3.514 7.614m3.095-7.156c-1.254 1.787-1.413 2.775-3.102 6.77" stroke="#000" fill="none"/></g><path d="M22.405 53.241c-.15 11.438-1.232 56.71-1.378 68.1m.219-68.878c.223 11.064 2.177 55.755 2.07 66.936" stroke="#000" fill="none" stroke-opacity=".5" fill-opacity=".5"/><g stroke-opacity=".3" fill-opacity=".3"><path d="M21.731 53.538c3.533-.166 17.445-.667 20.73-.609m-22.296-.154c3.497-.05 18.338 1.782 21.73 1.654" stroke="#000" fill="none"/><path d="M32.862 57.89c1.789-1.527 4.89-2.163 9.786-3.56m-10.539 2.954c3.412-.544 6.852-2.335 10.173-3.09" stroke="#000" fill="none"/><path d="M33.242 51.13c1.748.122 4.756 1.135 9.406 3.2m-10.16-3.806c3.262 1.737 6.574 2.224 9.794 3.67" stroke="#000" fill="none"/></g><g stroke-opacity=".5" fill-opacity=".5" fill="none"><path d="M253.173 475.5s0 0 0 0m0 0s0 0 0 0m-.271 7.066c1.25-1.71 1.883-3.625 5.24-6.843m-5.476 5.795c2.072-1.038 3.008-2.961 5.633-5.322m-4.175 12.473c2.145-4.483 5.32-8.035 9.019-13.826m-10.62 12.413c3.994-3.307 7.16-8.194 10.774-11.591m-10.952 19.768c5.409-4.914 8.913-10.81 15.145-20.864m-13.63 19.734c3.745-6.07 10.34-12.894 14.223-18.279m-12.727 21.561c1.957-2.285 4.657-7.636 18.59-23.724m-20.257 26.36c6.028-7.602 10.586-13.508 20.41-25.737m-22.07 29.641c8.906-9.28 15.218-15.463 28.859-26.722m-27.343 27.913c6.977-7.17 12.448-13.588 25.466-28.91m-27.135 36.224c11.108-11.128 21.717-25.133 32.483-38.486m-31.674 38.99c9.715-11.514 18.356-22.275 32.11-37.612m-29.511 44.28c7.757-10.298 15.82-20.963 33.368-44.627m-34.719 43.486c10.916-13.562 22.785-26.863 36.435-42.642m-38.824 47.714c15.53-13.218 25.82-28.648 44.017-48.04m-41.856 48.892c15.688-17.01 30.2-35.808 41.13-50.083M251.45 530.62c17.445-21.471 33.83-38.037 47.676-53.58m-46.523 52.97c12.48-11.967 21.767-23.435 47.63-53.977m-46.186 60.772c12.777-13.358 22.283-27.162 52.846-60.14M254.17 536.5c13.973-16.446 26.967-31.983 52.625-60.405M251.22 543.49c20.054-20.548 35.65-38.244 59.436-69.333m-57.179 68.631c20.518-24.64 42.415-48.239 58.208-66.167m-52.706 64.344c21.557-23.277 48.357-52.985 56.726-63.75m-57.297 65.798c20.313-23.478 39.43-45.52 57.849-67.042m-52.514 65.013c15.867-16.417 33.716-36.302 59.84-65.303m-59.641 67.404c21.775-25.663 42.675-51.506 58.86-68.13M270.68 541.37c19.607-22.819 38.032-46.491 58.653-65.868m-60.839 67.797c23.167-26.23 46.296-53.397 59.302-68.493M273.21 542.09c22.82-24.175 47.438-53.455 59.04-65.321m-58.829 65.634c14.448-16.104 28.855-32.505 59.238-67.193m-54.41 68.004c22.39-26.078 44.036-49.487 58.878-67.535m-56.865 65.885c18.934-22.408 40.02-44.864 58.73-67.294m-54.026 68.69c16.706-21.533 36.55-44.789 60.039-68.385m-59.51 67.835c12.241-14.09 25.762-28.815 57.843-65.859m-53.31 67.1c23.32-25.515 42.319-52.596 60.4-67.748m-60.64 67.078c24.722-26.994 47.893-52.989 58.635-67.947m-54.068 66.718c17.902-18.036 34.561-34.806 57.833-65.496m-57.446 65.523c18.013-19.02 33.837-37.127 59.173-66.624m-53.553 66.682c15.677-15.104 26.544-28.882 56.905-63.997m-57.118 63.882c18.102-18.206 34.094-38.057 58.206-65.443m-51.636 66.344c18.149-21.007 38.355-44.596 53.521-60.862m-53.501 60.423c16.279-18.02 31.496-37.021 51.826-59.2m-44.971 59.947c14.456-19.31 30.578-36.37 43.523-54.228m-45.692 54.256c9.972-12.608 22.129-24.913 46.068-55.224m-40.089 55.993c15.81-18.301 32.181-38.227 39.412-50.99m-40.752 49.558c11.846-11.96 22.536-24.285 43.614-47.595m-35.61 47.387c11.19-14.558 18.974-26.1 32.437-40.006m-33.811 40.781c10.687-14.921 24.219-29.102 35.905-42.357m-30.847 40.72c7.775-6.421 14.089-17.387 30.444-35.413m-29.9 35.973c10.4-12.553 22.197-26 28.971-34.836m-25.14 33.514c8.023-7.508 18.7-18.734 26.649-28.331m-26.743 30.475c7.35-7.447 11.97-13.173 26.22-29.342M337.11 541.27c8.315-6.654 17.013-16.08 22.93-22.636m-22.026 24.693c5.068-6.69 10.73-12.016 19.712-24.934m-13.61 22.822c2.295-3.386 4.77-8.67 13.159-18.202m-12.752 19.35c2.836-4.104 5.4-7.933 13.511-16.677m-10.774 17.964c5.065-4.162 5.283-5.84 10.87-11.01m-9.387 9.94c2.823-3.543 6.685-8.668 9.72-11.556m-4.785 10.932c2.189-1.45 3.536-3.934 4.648-4.33m-4.09 4.272c1.114-1.247 2.458-2.313 3.843-4.403" stroke="#fd7e14" stroke-width=".5"/><path d="M254.96 475.51c35.221.623 74.13-1.429 101.926.684m-104.428-.032c35.241-.199 71.486-.253 105.32-.926m-1.655 2.15c1.95 20.64 1.178 42.953.531 63.317m.437-65.484c.346 15.387-.593 28.51-.397 66.892m1.101-1.04c-20.848 2.628-44.985 3.745-103.164 2.939m102.98-2.183c-24.749 1.256-49.441.447-103.684.436m-1.22-1.242c-1.385-13.844-.298-27.414 1.356-66.326m-.382 67.532c-.659-24.06-.201-48.247.168-67.359" stroke="#000"/></g><g font-family="Virgil" font-size="20" fill="#d9480f" text-anchor="middle"><text x="35" y="18" style="white-space:pre" transform="translate(268.333 483)">Deploy</text><text x="35" y="44" style="white-space:pre" transform="translate(268.333 483)">preview</text></g><text x="11.5" y="20" font-family="Virgil" font-size="20" text-anchor="middle" style="white-space:pre" transform="translate(379.833 496.344)">✅</text><text x="11.5" y="20" font-family="Virgil" font-size="20" text-anchor="middle" style="white-space:pre" transform="translate(208.833 498.344)">⛔️</text><g stroke-opacity=".3" fill-opacity=".3"><path d="M252.173 508.956c-3.115-.016-16.4-.952-19.52-.977m18.501.253c-3.307.179-16.614 1.347-19.654 1.093" stroke="#000" fill="none"/><path d="M240.5 505.743c-3.316 1.663-5.25 2.975-8.939 2.929m8.53-2.411c-3.079.908-6.117 2.22-8.566 2.75" stroke="#000" fill="none"/><path d="M240.614 511.997c-3.337-.216-5.305-.784-9.053-3.325m8.644 3.843c-3.07-1.382-6.15-2.36-8.68-3.503" stroke="#000" fill="none"/></g><g stroke-opacity=".3" fill-opacity=".3"><path d="M359.945 506.952c3.283-.07 15.546.603 18.82.809m-19.957-2.06c3.116-.513 15.44.058 18.818.156" stroke="#000" fill="none"/><path d="M367.888 508.614c3.263-.215 6.232-1.381 9.03-2.102m-8.47 2.543c1.69-.591 3.884-1.473 8.839-2.732" stroke="#000" fill="none"/><path d="M368.125 501.847c3.244 1.667 6.147 2.382 8.794 4.665m-8.234-4.224c1.674.9 3.816 1.51 8.602 4.035" stroke="#000" fill="none"/></g><g stroke-opacity=".3" fill-opacity=".3"><path d="M233.677 402.368c-.06 2.914-.286 13.556-.274 16.542m-.742-17.395c-.25 3.073-.041 14.988.092 18.36" stroke="#000" fill="none"/><path d="M229.733 411.927c.11 3.396 2.383 6.48 3.61 7.739m-3.948-8.515c1.066 2.374 2.017 4.884 3.223 8.908" stroke="#000" fill="none"/><path d="M235.887 411.768c-2.212 3.5-2.262 6.643-2.543 7.898m2.205-8.674c-.68 2.408-1.475 4.963-2.93 9.067" stroke="#000" fill="none"/></g><g stroke-opacity=".3" fill-opacity=".3"><path d="M307.63 454.53c.128 3.352 1.101 16.197 1.073 19.4m-2.639-20.692c.038 3.131 2.075 15.964 2.148 19.056M303.955 464.838c2.173 1.575 3.237 4.433 4.087 7.201m-3.713-7.577c1.295 1.446 1.985 4.293 3.84 7.683" stroke="#000" fill="none"/><path d="M310.08 464.225c.28 1.754-.545 4.8-2.038 7.814m2.413-8.19c-.283 1.588-1.176 4.593-2.285 8.296" stroke="#000" fill="none"/></g><g stroke-opacity=".3" fill-opacity=".3"><path d="M390.876 521.469c.19 5.503.787 26.472 1.108 31.45m.59-32.25c.131 5.278-1.454 25.355-1.458 30.631" stroke="#000" fill="none"/><path d="M387.055 536.735c1.514 4.31.485 7.125 4.31 13.159m-5.156-13.368c.868 2.625 1.737 6.068 4.218 14.924" stroke="#000" fill="none"/><path d="M397.634 537.19c-.785 4.126-4.117 6.842-6.27 12.704m5.424-12.913c-1.399 2.45-2.793 5.796-6.36 14.47" stroke="#000" fill="none"/></g><g stroke-opacity=".3" fill-opacity=".3"><path d="M495.957 587.68c.127 2.966.409 14.832.388 18.076m-1.782-19.29c.035 3.152 1.019 17.543 1.102 20.7" stroke="#000" fill="none"/><path d="M491.921 599.259c1.033 1.925 3.053 4.685 4.25 7.922m-3.647-8.255a254.59 254.59 0 002.997 8.507" stroke="#000" fill="none"/><path d="M498.07 598.946c-.685 2.02-.382 4.866-1.898 8.235m2.5-8.568c-1.16 3.14-2.311 6.152-3.151 8.82" stroke="#000" fill="none"/></g><g stroke-opacity=".3" fill-opacity=".3"><path d="M399.09 759.54c11.061 11.126 53.57 56.635 64.617 68.055m-65.533-65.818c11.476 10.697 56.525 53.143 67.644 63.87" stroke="#000" fill="none"/><path d="M437.12 811.738c8.419 5.43 15.796 7.365 30.03 15.878m-29.686-14.088c10.836 5.325 23.071 9.45 29.13 11.622" stroke="#000" fill="none"/><path d="M451.266 796.872c5.093 9.123 9.073 14.628 15.884 30.744m-15.54-28.955c5.137 11.312 11.779 21.316 14.985 26.489" stroke="#000" fill="none"/></g><path d="M82.309 443.88c52.511 52.568 262.613 262.69 315.043 315.432m-316.4-313.405c52.394 52.807 263.237 261.928 315.78 314.58M79.425 403.664c.082 6.856.667 35.666.807 42.652m1.18-43.874c-.033 7.036-1.638 34.804-1.919 42.226" stroke="#000" fill="none" stroke-opacity=".3" fill-opacity=".3"/><path d="M161.724 454.097c-.34 11.342-1.574 57.832-1.835 69.05m.843-66.91c-.066 10.995 1.656 54.198 1.373 65.195M220.032 524.15c.267 9.776.454 49.764.4 59.487m-1.754-60.455c.249 9.331 1.087 48.556 1.121 58.604M286.383 588.217c.034 10.045 1.657 50.326 1.597 60.428m.368-58.225c-.107 9.737-.738 46.95-.714 56.353M399.723 680.884c-.119 12.596-1.219 64.587-1.397 77.686m.404-75.658c-.338 12.676-1.463 64.557-1.618 76.97" stroke="#000" fill="none" stroke-opacity=".3" fill-opacity=".3"/><g stroke-opacity=".3" fill-opacity=".3"><path d="M591.539 765.686c-10.425 10.594-53.574 53.954-64.02 64.482m63.039-65.715c-10.584 10.238-53.94 53.246-64.282 64.183" stroke="#000" fill="none"/><path d="M538.107 800.396c-.55 9.248-5.884 13.806-10.759 28.065m11.508-26.143c-2.605 6.666-6.408 12.247-13.562 25.817" stroke="#000" fill="none"/><path d="M552.751 814.772c-4.328 5.717-13.371 6.633-25.403 13.689m26.152-11.767c-6.42 2.972-13.971 4.873-28.206 11.44" stroke="#000" fill="none"/></g></svg>